<?xml version="1.0" encoding="utf-8" standalone="no"?>
<!DOCTYPE svg PUBLIC "-//W3C//DTD SVG 1.1//EN"
  "http://www.w3.org/Graphics/SVG/1.1/DTD/svg11.dtd">
<svg xmlns:xlink="http://www.w3.org/1999/xlink" width="495.944237pt" height="293.651711pt" viewBox="0 0 495.944237 293.651711" xmlns="http://www.w3.org/2000/svg" version="1.1">
 <metadata>
  <rdf:RDF xmlns:dc="http://purl.org/dc/elements/1.1/" xmlns:cc="http://creativecommons.org/ns#" xmlns:rdf="http://www.w3.org/1999/02/22-rdf-syntax-ns#">
   <cc:Work>
    <dc:type rdf:resource="http://purl.org/dc/dcmitype/StillImage"/>
    <dc:date>2026-08-31T22:07:50.565634</dc:date>
    <dc:format>image/svg+xml</dc:format>
    <dc:creator>
     <cc:Agent>
      <dc:title>Matplotlib v3.11.0, https://matplotlib.org/</dc:title>
     </cc:Agent>
    </dc:creator>
   </cc:Work>
  </rdf:RDF>
 </metadata>
 <defs>
  <style type="text/css">*{stroke-linejoin: round; stroke-linecap: butt}</style>
 </defs>
 <g id="figure_1">
  <g id="patch_1">
   <path d="M 0 293.651711 
L 495.944237 293.651711 
L 495.944237 0 
L 0 0 
L 0 293.651711 
z
" style="fill: none"/>
  </g>
  <g id="axes_1">
   <g id="patch_2">
    <path d="M 42.925742 256.354875 
L 444.685742 256.354875 
L 444.685742 23.506875 
L 42.925742 23.506875 
L 42.925742 256.354875 
z
" style="fill: none"/>
   </g>
   <g id="FillBetweenPolyCollection_1">
    <defs>
     <path id="m1ff4d8b32c" d="M 61.18756 -253.863124 
L 61.18756 -255.077459 
L 63.913205 -254.171768 
L 66.638849 -252.388254 
L 69.364494 -251.288767 
L 72.090138 -250.950642 
L 74.815783 -251.455971 
L 77.541427 -252.189813 
L 80.267072 -254.885985 
L 82.992716 -245.120625 
L 85.718361 -243.67152 
L 88.444005 -239.478868 
L 91.16965 -238.519765 
L 93.895294 -234.027075 
L 96.620939 -232.573789 
L 99.346583 -229.275217 
L 102.072228 -226.82753 
L 104.797872 -227.094592 
L 107.523517 -227.237893 
L 110.249161 -227.061864 
L 112.974806 -227.85144 
L 115.70045 -227.859646 
L 118.426095 -230.345883 
L 121.151739 -229.355661 
L 123.877384 -227.592583 
L 126.603028 -226.763373 
L 129.328673 -230.195709 
L 132.054317 -228.855751 
L 134.779962 -229.515279 
L 137.505607 -235.849541 
L 140.231251 -225.691252 
L 142.956896 -224.207312 
L 145.68254 -225.442767 
L 148.408185 -226.281112 
L 151.133829 -222.030713 
L 153.859474 -226.001818 
L 156.585118 -220.556062 
L 159.310763 -219.427432 
L 162.036407 -220.567674 
L 164.762052 -250.829202 
L 167.487696 -250.406547 
L 170.213341 -252.385133 
L 172.938985 -250.248631 
L 175.66463 -251.811529 
L 178.390274 -251.097813 
L 181.115919 -250.901503 
L 183.841563 -250.727332 
L 186.567208 -250.136542 
L 189.292852 -252.458827 
L 192.018497 -243.299738 
L 194.744141 -245.066996 
L 197.469786 -249.309655 
L 200.19543 -247.572586 
L 202.921075 -247.728179 
L 205.646719 -247.520102 
L 208.372364 -246.165437 
L 211.098008 -248.613124 
L 213.823653 -248.859286 
L 216.549297 -248.192791 
L 219.274942 -247.721367 
L 222.000586 -254.548263 
L 224.726231 -254.800618 
L 227.451875 -254.373318 
L 230.17752 -253.116962 
L 232.903164 -251.386861 
L 235.628809 -251.097039 
L 238.354453 -251.746969 
L 241.080098 -250.927203 
L 243.805742 -251.974553 
L 246.531387 -252.917401 
L 249.257031 -254.575821 
L 251.982676 -254.271602 
L 254.70832 -253.897714 
L 257.433965 -253.695675 
L 260.159609 -253.091882 
L 262.885254 -253.017104 
L 265.610898 -253.574452 
L 268.336543 -253.581419 
L 271.062187 -254.326872 
L 273.787832 -254.206114 
L 276.513476 -255.861438 
L 279.239121 -255.552574 
L 281.964765 -257.099215 
L 284.69041 -257.158665 
L 287.416054 -256.57345 
L 290.141699 -256.875037 
L 292.867343 -258.557609 
L 295.592988 -258.57851 
L 298.318632 -258.397372 
L 301.044277 -259.560836 
L 303.769921 -258.408983 
L 306.495566 -258.204622 
L 309.22121 -254.841955 
L 311.946855 -247.242203 
L 314.672499 -246.048549 
L 317.398144 -246.441015 
L 320.123788 -248.3778 
L 322.849433 -241.100071 
L 325.575077 -239.850682 
L 328.300722 -240.078266 
L 331.026366 -235.167409 
L 333.752011 -235.429827 
L 336.477655 -229.884213 
L 339.2033 -233.28156 
L 341.928944 -231.943924 
L 344.654589 -233.228147 
L 347.380233 -232.048427 
L 350.105878 -232.055394 
L 352.831522 -230.441406 
L 355.557167 -230.520364 
L 358.282811 -231.714018 
L 361.008456 -233.254466 
L 363.7341 -224.511531 
L 366.459745 -224.383805 
L 369.185389 -224.353616 
L 371.911034 -224.009918 
L 374.636678 -222.244982 
L 377.362323 -233.280476 
L 380.087967 -229.2493 
L 382.813612 -228.989205 
L 385.539256 -226.831648 
L 388.264901 -226.385769 
L 390.990545 -226.986467 
L 393.71619 -226.596323 
L 396.441834 -221.943085 
L 399.167479 -220.742464 
L 401.893123 -216.837931 
L 404.618768 -214.627116 
L 407.344412 -211.972746 
L 410.070057 -207.536873 
L 412.795701 -207.427726 
L 415.521346 -204.827387 
L 418.24699 -212.612303 
L 420.972635 -210.148359 
L 423.69828 -211.081917 
L 426.423924 -210.557081 
L 426.423924 -48.795943 
L 426.423924 -48.795943 
L 423.69828 -50.515395 
L 420.972635 -50.777037 
L 418.24699 -54.437609 
L 415.521346 -47.880836 
L 412.795701 -51.713967 
L 410.070057 -53.020621 
L 407.344412 -58.690998 
L 404.618768 -62.544577 
L 401.893123 -65.954736 
L 399.167479 -71.095198 
L 396.441834 -73.493287 
L 393.71619 -79.382025 
L 390.990545 -80.967794 
L 388.264901 -81.60279 
L 385.539256 -83.245814 
L 382.813612 -86.639244 
L 380.087967 -88.09605 
L 377.362323 -93.360311 
L 374.636678 -83.516554 
L 371.911034 -86.469526 
L 369.185389 -88.00128 
L 366.459745 -89.218529 
L 363.7341 -90.532501 
L 361.008456 -100.503388 
L 358.282811 -100.148455 
L 355.557167 -100.138943 
L 352.831522 -101.24375 
L 350.105878 -104.040714 
L 347.380233 -105.217373 
L 344.654589 -107.581586 
L 341.928944 -107.481707 
L 339.2033 -110.006895 
L 336.477655 -107.835955 
L 333.752011 -114.567343 
L 331.026366 -115.489688 
L 328.300722 -121.629018 
L 325.575077 -122.584848 
L 322.849433 -125.019947 
L 320.123788 -133.528101 
L 317.398144 -132.777349 
L 314.672499 -133.573136 
L 311.946855 -135.956276 
L 309.22121 -144.79082 
L 306.495566 -149.342092 
L 303.769921 -150.734781 
L 301.044277 -153.075988 
L 298.318632 -153.100344 
L 295.592988 -154.468145 
L 292.867343 -155.632182 
L 290.141699 -155.183735 
L 287.416054 -156.065252 
L 284.69041 -157.832036 
L 281.964765 -158.954544 
L 279.239121 -158.592527 
L 276.513476 -160.087663 
L 273.787832 -159.665045 
L 271.062187 -160.972939 
L 268.336543 -161.415595 
L 265.610898 -162.597672 
L 262.885254 -163.228622 
L 260.159609 -164.490379 
L 257.433965 -166.281789 
L 254.70832 -167.670484 
L 251.982676 -169.23096 
L 249.257031 -170.721793 
L 246.531387 -170.299047 
L 243.805742 -170.543511 
L 241.080098 -170.684014 
L 238.354453 -172.691025 
L 235.628809 -173.226398 
L 232.903164 -174.699684 
L 230.17752 -177.614806 
L 227.451875 -180.05619 
L 224.726231 -181.666913 
L 222.000586 -182.598916 
L 219.274942 -177.004256 
L 216.549297 -178.658841 
L 213.823653 -180.508421 
L 211.098008 -181.445531 
L 208.372364 -180.181371 
L 205.646719 -182.717982 
L 202.921075 -184.106282 
L 200.19543 -185.134373 
L 197.469786 -188.055775 
L 194.744141 -185.042373 
L 192.018497 -184.462674 
L 189.292852 -194.834925 
L 186.567208 -193.700721 
L 183.841563 -195.477773 
L 181.115919 -196.837608 
L 178.390274 -198.219744 
L 175.66463 -200.120172 
L 172.938985 -199.743858 
L 170.213341 -203.06008 
L 167.487696 -202.258563 
L 164.762052 -203.858933 
L 162.036407 -174.846765 
L 159.310763 -174.88276 
L 156.585118 -177.184957 
L 153.859474 -183.803322 
L 151.133829 -181.004311 
L 148.408185 -186.48724 
L 145.68254 -186.820739 
L 142.956896 -186.756223 
L 140.231251 -189.410014 
L 137.505607 -200.796745 
L 134.779962 -195.634801 
L 132.054317 -196.152579 
L 129.328673 -198.670778 
L 126.603028 -196.449195 
L 123.877384 -198.496024 
L 121.151739 -201.477261 
L 118.426095 -203.684207 
L 115.70045 -202.432577 
L 112.974806 -203.657844 
L 110.249161 -204.046663 
L 107.523517 -205.454965 
L 104.797872 -206.490743 
L 102.072228 -207.4024 
L 99.346583 -211.028643 
L 96.620939 -215.557343 
L 93.895294 -218.212027 
L 91.16965 -223.923859 
L 88.444005 -226.08424 
L 85.718361 -231.495558 
L 82.992716 -234.144406 
L 80.267072 -245.150151 
L 77.541427 -243.654084 
L 74.815783 -244.126561 
L 72.090138 -244.849605 
L 69.364494 -246.400582 
L 66.638849 -248.739749 
L 63.913205 -251.739909 
L 61.18756 -253.863124 
z
" style="stroke: #ef4444; stroke-opacity: 0.12"/>
    </defs>
    <g clip-path="url(#p1dbf7cb50c)">
     <use xlink:href="#m1ff4d8b32c" x="0" y="293.651711" style="fill: #ef4444; fill-opacity: 0.12; stroke: #ef4444; stroke-opacity: 0.12"/>
    </g>
   </g>
   <g id="matplotlib.axis_1">
    <g id="xtick_1">
     <g id="line2d_1"/>
     <g id="text_1">
      <!-- 0 -->
      <g style="fill: #858e9c" transform="translate(55.432619 268.652727) scale(0.11 -0.11)">
       <defs>
        <path id="MalgunGothic-13" d="M 278 2206 
Q 278 3425 675 4050 
Q 1072 4675 1819 4675 
Q 3253 4675 3253 2319 
Q 3253 1156 2854 539 
Q 2456 -78 1716 -78 
Q 1016 -78 647 520 
Q 278 1119 278 2206 
z
M 784 2231 
Q 784 344 1769 344 
Q 2747 344 2747 2259 
Q 2747 4250 1794 4250 
Q 784 4250 784 2231 
z
" transform="scale(0.015625)"/>
       </defs>
       <use xlink:href="#MalgunGothic-13"/>
      </g>
     </g>
    </g>
    <g id="xtick_2">
     <g id="line2d_2"/>
     <g id="text_2">
      <!-- 20 -->
      <g style="fill: #858e9c" transform="translate(106.916212 268.652727) scale(0.11 -0.11)">
       <defs>
        <path id="MalgunGothic-15" d="M 2519 3372 
Q 2519 3784 2275 4018 
Q 2031 4253 1628 4253 
Q 1341 4253 1053 4104 
Q 766 3956 534 3697 
L 534 4234 
Q 981 4675 1691 4675 
Q 2281 4675 2642 4334 
Q 3003 3994 3003 3416 
Q 3003 2919 2772 2545 
Q 2541 2172 1984 1775 
Q 1459 1406 1254 1215 
Q 1050 1025 967 854 
Q 884 684 884 450 
L 3116 450 
L 3116 0 
L 356 0 
L 356 225 
Q 356 603 461 870 
Q 566 1138 811 1392 
Q 1056 1647 1597 2022 
Q 2091 2363 2305 2670 
Q 2519 2978 2519 3372 
z
" transform="scale(0.015625)"/>
       </defs>
       <use xlink:href="#MalgunGothic-15"/>
       <use xlink:href="#MalgunGothic-13" transform="translate(55.078125 0)"/>
      </g>
     </g>
    </g>
    <g id="xtick_3">
     <g id="line2d_3"/>
     <g id="text_3">
      <!-- 40 -->
      <g style="fill: #858e9c" transform="translate(161.429102 268.652727) scale(0.11 -0.11)">
       <defs>
        <path id="MalgunGothic-17" d="M 2703 4600 
L 2703 1563 
L 3309 1563 
L 3309 1113 
L 2703 1113 
L 2703 0 
L 2213 0 
L 2213 1113 
L 50 1113 
L 50 1534 
Q 728 2297 1295 3109 
Q 1863 3922 2172 4600 
L 2703 4600 
z
M 625 1563 
L 2213 1563 
L 2213 3831 
Q 1613 2788 959 1981 
L 625 1563 
z
" transform="scale(0.015625)"/>
       </defs>
       <use xlink:href="#MalgunGothic-17"/>
       <use xlink:href="#MalgunGothic-13" transform="translate(55.078125 0)"/>
      </g>
     </g>
    </g>
    <g id="xtick_4">
     <g id="line2d_4"/>
     <g id="text_4">
      <!-- 60 -->
      <g style="fill: #858e9c" transform="translate(215.941992 268.652727) scale(0.11 -0.11)">
       <defs>
        <path id="MalgunGothic-19" d="M 2981 4069 
Q 2619 4250 2228 4250 
Q 1591 4250 1228 3689 
Q 866 3128 869 2213 
L 884 2213 
Q 1203 2872 1938 2872 
Q 2547 2872 2903 2478 
Q 3259 2084 3259 1450 
Q 3259 797 2857 359 
Q 2456 -78 1825 -78 
Q 1116 -78 736 478 
Q 356 1034 356 2019 
Q 356 3181 847 3928 
Q 1338 4675 2222 4675 
Q 2700 4675 2981 4544 
L 2981 4069 
z
M 906 1506 
Q 906 1022 1165 683 
Q 1425 344 1844 344 
Q 2247 344 2498 645 
Q 2750 947 2750 1388 
Q 2750 1888 2509 2167 
Q 2269 2447 1838 2447 
Q 1444 2447 1175 2173 
Q 906 1900 906 1506 
z
" transform="scale(0.015625)"/>
       </defs>
       <use xlink:href="#MalgunGothic-19"/>
       <use xlink:href="#MalgunGothic-13" transform="translate(55.078125 0)"/>
      </g>
     </g>
    </g>
    <g id="xtick_5">
     <g id="line2d_5"/>
     <g id="text_5">
      <!-- 80 -->
      <g style="fill: #858e9c" transform="translate(270.454882 268.652727) scale(0.11 -0.11)">
       <defs>
        <path id="MalgunGothic-1b" d="M 303 1281 
Q 303 1669 539 2011 
Q 775 2353 1153 2494 
Q 856 2647 675 2915 
Q 494 3184 494 3500 
Q 494 3828 659 4098 
Q 825 4369 1122 4522 
Q 1419 4675 1778 4675 
Q 2334 4675 2700 4342 
Q 3066 4009 3066 3500 
Q 3066 3181 2881 2914 
Q 2697 2647 2413 2494 
Q 2788 2350 3022 2009 
Q 3256 1669 3256 1281 
Q 3256 672 2843 297 
Q 2431 -78 1778 -78 
Q 1131 -78 717 301 
Q 303 681 303 1281 
z
M 809 1328 
Q 809 878 1081 611 
Q 1353 344 1781 344 
Q 2206 344 2482 619 
Q 2759 894 2759 1328 
Q 2759 1731 2482 2011 
Q 2206 2291 1781 2291 
Q 1372 2291 1090 2020 
Q 809 1750 809 1328 
z
M 1003 3459 
Q 1003 3125 1234 2900 
Q 1466 2675 1781 2675 
Q 2097 2675 2330 2900 
Q 2563 3125 2563 3459 
Q 2563 3803 2341 4026 
Q 2119 4250 1781 4250 
Q 1450 4250 1226 4029 
Q 1003 3809 1003 3459 
z
" transform="scale(0.015625)"/>
       </defs>
       <use xlink:href="#MalgunGothic-1b"/>
       <use xlink:href="#MalgunGothic-13" transform="translate(55.078125 0)"/>
      </g>
     </g>
    </g>
    <g id="xtick_6">
     <g id="line2d_6"/>
     <g id="text_6">
      <!-- 100 -->
      <g style="fill: #858e9c" transform="translate(321.938476 268.652727) scale(0.11 -0.11)">
       <defs>
        <path id="MalgunGothic-14" d="M 2231 0 
L 1734 0 
L 1734 3972 
Q 1591 3828 1266 3661 
Q 941 3494 672 3428 
L 672 3959 
Q 1016 4056 1409 4275 
Q 1803 4494 2031 4700 
L 2231 4700 
L 2231 0 
z
" transform="scale(0.015625)"/>
       </defs>
       <use xlink:href="#MalgunGothic-14"/>
       <use xlink:href="#MalgunGothic-13" transform="translate(55.078125 0)"/>
       <use xlink:href="#MalgunGothic-13" transform="translate(110.15625 0)"/>
      </g>
     </g>
    </g>
    <g id="xtick_7">
     <g id="line2d_7"/>
     <g id="text_7">
      <!-- 120 -->
      <g style="fill: #858e9c" transform="translate(376.451366 268.652727) scale(0.11 -0.11)">
       <use xlink:href="#MalgunGothic-14"/>
       <use xlink:href="#MalgunGothic-15" transform="translate(55.078125 0)"/>
       <use xlink:href="#MalgunGothic-13" transform="translate(110.15625 0)"/>
      </g>
     </g>
    </g>
    <g id="xtick_8">
     <g id="line2d_8"/>
     <g id="text_8">
      <!-- 140 -->
      <g style="fill: #858e9c" transform="translate(430.964256 268.652727) scale(0.11 -0.11)">
       <use xlink:href="#MalgunGothic-14"/>
       <use xlink:href="#MalgunGothic-17" transform="translate(55.078125 0)"/>
       <use xlink:href="#MalgunGothic-13" transform="translate(110.15625 0)"/>
      </g>
     </g>
    </g>
    <g id="text_9">
     <!-- 거래 순번 (건당 100 USDT) -->
     <g style="fill: #858e9c" transform="translate(177.165508 284.249562) scale(0.11 -0.11)">
      <defs>
       <path id="MalgunGothic-2a0" d="M 4897 -563 
L 4897 2663 
L 3419 2663 
L 3419 3078 
L 4897 3078 
L 4897 5466 
L 5363 5466 
L 5363 -563 
L 4897 -563 
z
M 3547 4928 
Q 3481 2356 831 863 
L 481 1241 
Q 1438 1638 2178 2516 
Q 2919 3394 3047 4513 
L 728 4513 
L 728 4928 
L 3547 4928 
z
" transform="scale(0.015625)"/>
       <path id="MalgunGothic-50e" d="M 5088 -563 
L 5088 2431 
L 4319 2431 
L 4319 -378 
L 3859 -378 
L 3859 5344 
L 4319 5344 
L 4319 2847 
L 5088 2847 
L 5088 5466 
L 5556 5466 
L 5556 -563 
L 5088 -563 
z
M 763 819 
L 763 3169 
L 2606 3169 
L 2606 4500 
L 763 4500 
L 763 4916 
L 3072 4916 
L 3072 2766 
L 1228 2766 
L 1228 1228 
L 1916 1228 
Q 3134 1228 3481 1288 
L 3541 897 
Q 3316 847 2852 833 
Q 2388 819 763 819 
z
" transform="scale(0.015625)"/>
       <path id="MalgunGothic-3" transform="scale(0.015625)"/>
       <path id="MalgunGothic-73b" d="M 5459 3084 
Q 4713 3200 4084 3572 
Q 3456 3944 3206 4334 
Q 2969 3959 2322 3575 
Q 1675 3191 972 3084 
L 697 3463 
Q 1650 3553 2309 4037 
Q 2969 4522 2969 4966 
L 2969 5203 
L 3431 5203 
L 3431 4959 
Q 3431 4513 4092 4036 
Q 4753 3559 5703 3463 
L 5459 3084 
z
M 3438 2003 
L 3438 563 
L 2963 563 
L 2963 2003 
L 403 2003 
L 403 2419 
L 5997 2419 
L 5997 2003 
L 3438 2003 
z
M 1325 -359 
L 1325 1459 
L 1791 1459 
L 1791 56 
L 5203 56 
L 5203 -359 
L 1325 -359 
z
" transform="scale(0.015625)"/>
       <path id="MalgunGothic-621" d="M 1038 2125 
L 1038 5184 
L 1497 5184 
L 1497 4031 
L 3353 4031 
L 3353 5184 
L 3822 5184 
L 3822 3775 
L 4947 3775 
L 4947 5466 
L 5416 5466 
L 5416 1063 
L 4947 1063 
L 4947 3359 
L 3822 3359 
L 3822 2125 
L 1038 2125 
z
M 3353 3616 
L 1497 3616 
L 1497 2534 
L 3353 2534 
L 3353 3616 
z
M 1766 -331 
L 1766 1466 
L 2234 1466 
L 2234 91 
L 5638 91 
L 5638 -331 
L 1766 -331 
z
" transform="scale(0.015625)"/>
       <path id="MalgunGothic-b" d="M 1438 -1044 
Q 447 88 447 1753 
Q 447 3431 1438 4600 
L 1888 4600 
Q 878 3372 878 1759 
Q 878 153 1881 -1044 
L 1438 -1044 
z
" transform="scale(0.015625)"/>
       <path id="MalgunGothic-2a2" d="M 4947 1056 
L 4947 3078 
L 3559 3078 
L 3559 3494 
L 4947 3494 
L 4947 5466 
L 5416 5466 
L 5416 1056 
L 4947 1056 
z
M 3616 5081 
Q 3488 3963 2752 3100 
Q 2016 2238 856 1734 
L 544 2113 
Q 1509 2459 2201 3142 
Q 2894 3825 3066 4666 
L 941 4666 
L 941 5081 
L 3616 5081 
z
M 1722 -325 
L 1722 1575 
L 2188 1575 
L 2188 97 
L 5588 97 
L 5588 -325 
L 1722 -325 
z
" transform="scale(0.015625)"/>
       <path id="MalgunGothic-43a" d="M 5125 3391 
L 5125 1959 
L 4659 1959 
L 4659 5466 
L 5125 5466 
L 5125 3816 
L 6034 3816 
L 6034 3391 
L 5125 3391 
z
M 4000 2559 
Q 3016 2497 831 2497 
L 831 5119 
L 3719 5119 
L 3719 4703 
L 1300 4703 
L 1300 2913 
Q 3191 2913 3969 2963 
L 4000 2559 
z
M 3263 -481 
Q 2319 -481 1809 -162 
Q 1300 156 1300 672 
Q 1300 1184 1808 1504 
Q 2316 1825 3263 1825 
Q 4209 1825 4718 1508 
Q 5228 1191 5228 672 
Q 5228 150 4717 -165 
Q 4206 -481 3263 -481 
z
M 3263 1428 
Q 2550 1428 2173 1220 
Q 1797 1013 1797 672 
Q 1797 331 2173 123 
Q 2550 -84 3263 -84 
Q 3981 -84 4359 125 
Q 4738 334 4738 672 
Q 4738 1009 4359 1218 
Q 3981 1428 3263 1428 
z
" transform="scale(0.015625)"/>
       <path id="MalgunGothic-38" d="M 3947 1850 
Q 3947 -78 2209 -78 
Q 553 -78 553 1778 
L 553 4600 
L 1056 4600 
L 1056 1813 
Q 1056 381 2272 381 
Q 3441 381 3441 1763 
L 3441 4600 
L 3947 4600 
L 3947 1850 
z
" transform="scale(0.015625)"/>
       <path id="MalgunGothic-36" d="M 394 797 
Q 606 613 964 500 
Q 1322 388 1625 388 
Q 2628 388 2628 1116 
Q 2628 1325 2523 1484 
Q 2419 1644 2250 1756 
Q 2081 1869 1547 2144 
Q 903 2475 651 2754 
Q 400 3034 400 3456 
Q 400 4019 858 4347 
Q 1316 4675 1988 4675 
Q 2669 4675 2963 4513 
L 2963 3928 
Q 2563 4206 1922 4206 
Q 1484 4206 1207 4018 
Q 931 3831 931 3500 
Q 931 3200 1126 3011 
Q 1322 2822 1938 2522 
Q 2656 2163 2906 1844 
Q 3156 1525 3156 1153 
Q 3156 556 2725 239 
Q 2294 -78 1531 -78 
Q 1291 -78 927 -1 
Q 563 75 394 188 
L 394 797 
z
" transform="scale(0.015625)"/>
       <path id="MalgunGothic-27" d="M 609 0 
L 609 4600 
L 1856 4600 
Q 4281 4600 4281 2356 
Q 4281 1288 3587 644 
Q 2894 0 1800 0 
L 609 0 
z
M 1113 4134 
L 1113 463 
L 1813 463 
Q 2734 463 3243 958 
Q 3753 1453 3753 2344 
Q 3753 4134 1844 4134 
L 1113 4134 
z
" transform="scale(0.015625)"/>
       <path id="MalgunGothic-37" d="M 3294 4134 
L 1966 4134 
L 1966 0 
L 1456 0 
L 1456 4134 
L 134 4134 
L 134 4600 
L 3294 4600 
L 3294 4134 
z
" transform="scale(0.015625)"/>
       <path id="MalgunGothic-c" d="M 81 -1044 
Q 1081 150 1081 1759 
Q 1081 3378 72 4600 
L 525 4600 
Q 1522 3431 1522 1753 
Q 1522 88 525 -1044 
L 81 -1044 
z
" transform="scale(0.015625)"/>
      </defs>
      <use xlink:href="#MalgunGothic-2a0"/>
      <use xlink:href="#MalgunGothic-50e" transform="translate(100 0)"/>
      <use xlink:href="#MalgunGothic-3" transform="translate(200 0)"/>
      <use xlink:href="#MalgunGothic-73b" transform="translate(235.15625 0)"/>
      <use xlink:href="#MalgunGothic-621" transform="translate(335.15625 0)"/>
      <use xlink:href="#MalgunGothic-3" transform="translate(435.15625 0)"/>
      <use xlink:href="#MalgunGothic-b" transform="translate(470.3125 0)"/>
      <use xlink:href="#MalgunGothic-2a2" transform="translate(500.78125 0)"/>
      <use xlink:href="#MalgunGothic-43a" transform="translate(600.78125 0)"/>
      <use xlink:href="#MalgunGothic-3" transform="translate(700.78125 0)"/>
      <use xlink:href="#MalgunGothic-14" transform="translate(735.9375 0)"/>
      <use xlink:href="#MalgunGothic-13" transform="translate(791.015625 0)"/>
      <use xlink:href="#MalgunGothic-13" transform="translate(846.09375 0)"/>
      <use xlink:href="#MalgunGothic-3" transform="translate(901.171875 0)"/>
      <use xlink:href="#MalgunGothic-38" transform="translate(936.328125 0)"/>
      <use xlink:href="#MalgunGothic-36" transform="translate(1006.59375 0)"/>
      <use xlink:href="#MalgunGothic-27" transform="translate(1060.890625 0)"/>
      <use xlink:href="#MalgunGothic-37" transform="translate(1127.796875 0)"/>
      <use xlink:href="#MalgunGothic-c" transform="translate(1181.171875 0)"/>
     </g>
    </g>
   </g>
   <g id="matplotlib.axis_2">
    <g id="ytick_1">
     <g id="line2d_9"/>
     <g id="text_10">
      <!-- -12 -->
      <g style="fill: #858e9c" transform="translate(22.796836 234.412986) scale(0.11 -0.11)">
       <defs>
        <path id="MalgunGothic-10" d="M 2213 1634 
L 463 1634 
L 463 2031 
L 2213 2031 
L 2213 1634 
z
" transform="scale(0.015625)"/>
       </defs>
       <use xlink:href="#MalgunGothic-10"/>
       <use xlink:href="#MalgunGothic-14" transform="translate(41.015625 0)"/>
       <use xlink:href="#MalgunGothic-15" transform="translate(96.09375 0)"/>
      </g>
     </g>
    </g>
    <g id="ytick_2">
     <g id="line2d_10"/>
     <g id="text_11">
      <!-- -10 -->
      <g style="fill: #858e9c" transform="translate(22.796836 203.449199) scale(0.11 -0.11)">
       <use xlink:href="#MalgunGothic-10"/>
       <use xlink:href="#MalgunGothic-14" transform="translate(41.015625 0)"/>
       <use xlink:href="#MalgunGothic-13" transform="translate(96.09375 0)"/>
      </g>
     </g>
    </g>
    <g id="ytick_3">
     <g id="line2d_11"/>
     <g id="text_12">
      <!-- -8 -->
      <g style="fill: #858e9c" transform="translate(28.85543 172.485411) scale(0.11 -0.11)">
       <use xlink:href="#MalgunGothic-10"/>
       <use xlink:href="#MalgunGothic-1b" transform="translate(41.015625 0)"/>
      </g>
     </g>
    </g>
    <g id="ytick_4">
     <g id="line2d_12"/>
     <g id="text_13">
      <!-- -6 -->
      <g style="fill: #858e9c" transform="translate(28.85543 141.521624) scale(0.11 -0.11)">
       <use xlink:href="#MalgunGothic-10"/>
       <use xlink:href="#MalgunGothic-19" transform="translate(41.015625 0)"/>
      </g>
     </g>
    </g>
    <g id="ytick_5">
     <g id="line2d_13"/>
     <g id="text_14">
      <!-- -4 -->
      <g style="fill: #858e9c" transform="translate(28.85543 110.557836) scale(0.11 -0.11)">
       <use xlink:href="#MalgunGothic-10"/>
       <use xlink:href="#MalgunGothic-17" transform="translate(41.015625 0)"/>
      </g>
     </g>
    </g>
    <g id="ytick_6">
     <g id="line2d_14"/>
     <g id="text_15">
      <!-- -2 -->
      <g style="fill: #858e9c" transform="translate(28.85543 79.594049) scale(0.11 -0.11)">
       <use xlink:href="#MalgunGothic-10"/>
       <use xlink:href="#MalgunGothic-15" transform="translate(41.015625 0)"/>
      </g>
     </g>
    </g>
    <g id="ytick_7">
     <g id="line2d_15"/>
     <g id="text_16">
      <!-- 0 -->
      <g style="fill: #858e9c" transform="translate(33.367148 48.630261) scale(0.11 -0.11)">
       <use xlink:href="#MalgunGothic-13"/>
      </g>
     </g>
    </g>
    <g id="text_17">
     <!-- 누적 손익 (USDT) -->
     <g style="fill: #858e9c" transform="translate(16.594688 182.616031) rotate(-90) scale(0.11 -0.11)">
      <defs>
       <path id="MalgunGothic-3fc" d="M 1350 3200 
L 1350 5253 
L 1819 5253 
L 1819 3609 
L 5209 3609 
L 5209 3200 
L 1350 3200 
z
M 3431 1819 
L 3431 -563 
L 2963 -563 
L 2963 1819 
L 403 1819 
L 403 2234 
L 5997 2234 
L 5997 1819 
L 3431 1819 
z
" transform="scale(0.015625)"/>
       <path id="MalgunGothic-8b6" d="M 4884 1991 
L 4884 3688 
L 3444 3688 
L 3444 4109 
L 4884 4109 
L 4884 5466 
L 5350 5466 
L 5350 1991 
L 4884 1991 
z
M 3653 2297 
Q 3244 2519 2830 2911 
Q 2416 3303 2253 3647 
Q 2084 3263 1665 2819 
Q 1247 2375 819 2144 
L 488 2463 
Q 1147 2781 1578 3361 
Q 2009 3941 2009 4575 
L 2009 4781 
L 684 4781 
L 684 5197 
L 3788 5197 
L 3788 4781 
L 2463 4781 
L 2463 4575 
Q 2463 3981 2911 3434 
Q 3359 2888 3969 2638 
L 3653 2297 
z
M 4884 -563 
L 4884 1234 
L 1428 1234 
L 1428 1650 
L 5350 1650 
L 5350 -563 
L 4884 -563 
z
" transform="scale(0.015625)"/>
       <path id="MalgunGothic-718" d="M 5459 3059 
Q 4756 3163 4125 3533 
Q 3494 3903 3206 4334 
Q 2956 3944 2307 3553 
Q 1659 3163 972 3066 
L 697 3444 
Q 1628 3525 2298 4020 
Q 2969 4516 2969 4966 
L 2969 5203 
L 3431 5203 
L 3431 4959 
Q 3431 4506 4095 4007 
Q 4759 3509 5703 3438 
L 5459 3059 
z
M 403 1753 
L 403 2169 
L 2963 2169 
L 2963 3263 
L 3438 3263 
L 3438 2169 
L 5997 2169 
L 5997 1753 
L 403 1753 
z
M 1325 -378 
L 1325 1344 
L 1791 1344 
L 1791 38 
L 5203 38 
L 5203 -378 
L 1325 -378 
z
" transform="scale(0.015625)"/>
       <path id="MalgunGothic-888" d="M 4953 2069 
L 4953 5466 
L 5428 5466 
L 5428 2069 
L 4953 2069 
z
M 2400 2394 
Q 1728 2394 1300 2808 
Q 872 3222 872 3847 
Q 872 4469 1297 4881 
Q 1722 5294 2400 5294 
Q 3078 5294 3508 4883 
Q 3938 4472 3938 3847 
Q 3938 3216 3506 2805 
Q 3075 2394 2400 2394 
z
M 2400 4897 
Q 1928 4897 1633 4601 
Q 1338 4306 1338 3847 
Q 1338 3381 1631 3089 
Q 1925 2797 2400 2797 
Q 2878 2797 3173 3090 
Q 3469 3384 3469 3847 
Q 3469 4300 3173 4598 
Q 2878 4897 2400 4897 
z
M 4953 -563 
L 4953 1319 
L 1478 1319 
L 1478 1734 
L 5428 1734 
L 5428 -563 
L 4953 -563 
z
" transform="scale(0.015625)"/>
      </defs>
      <use xlink:href="#MalgunGothic-3fc"/>
      <use xlink:href="#MalgunGothic-8b6" transform="translate(100 0)"/>
      <use xlink:href="#MalgunGothic-3" transform="translate(200 0)"/>
      <use xlink:href="#MalgunGothic-718" transform="translate(235.15625 0)"/>
      <use xlink:href="#MalgunGothic-888" transform="translate(335.15625 0)"/>
      <use xlink:href="#MalgunGothic-3" transform="translate(435.15625 0)"/>
      <use xlink:href="#MalgunGothic-b" transform="translate(470.3125 0)"/>
      <use xlink:href="#MalgunGothic-38" transform="translate(500.78125 0)"/>
      <use xlink:href="#MalgunGothic-36" transform="translate(571.046875 0)"/>
      <use xlink:href="#MalgunGothic-27" transform="translate(625.34375 0)"/>
      <use xlink:href="#MalgunGothic-37" transform="translate(692.25 0)"/>
      <use xlink:href="#MalgunGothic-c" transform="translate(745.625 0)"/>
     </g>
    </g>
   </g>
   <g id="line2d_16">
    <path d="M 61.18756 38.574252 
L 63.913205 39.479942 
L 66.638849 41.263457 
L 69.364494 42.362944 
L 72.090138 42.701069 
L 74.815783 42.19574 
L 77.541427 41.461898 
L 80.267072 38.765726 
L 82.992716 48.531086 
L 85.718361 49.980191 
L 88.444005 54.172843 
L 91.16965 55.131946 
L 93.895294 59.624636 
L 96.620939 61.077922 
L 99.346583 64.376494 
L 102.072228 66.824181 
L 104.797872 66.557119 
L 107.523517 66.413818 
L 110.249161 66.589847 
L 112.974806 65.800271 
L 115.70045 65.792065 
L 118.426095 63.305828 
L 121.151739 64.29605 
L 123.877384 66.059128 
L 126.603028 66.888338 
L 129.328673 63.456002 
L 132.054317 64.79596 
L 134.779962 64.136432 
L 137.505607 57.80217 
L 140.231251 67.960459 
L 142.956896 69.444399 
L 145.68254 68.208944 
L 148.408185 67.370599 
L 151.133829 71.620998 
L 153.859474 67.649893 
L 156.585118 73.095649 
L 159.310763 74.224279 
L 162.036407 73.084037 
L 164.762052 42.822509 
L 167.487696 43.245164 
L 170.213341 41.266578 
L 172.938985 43.40308 
L 175.66463 41.840182 
L 178.390274 42.553898 
L 183.841563 42.924379 
L 186.567208 43.515168 
L 189.292852 41.192884 
L 192.018497 50.351973 
L 194.744141 48.584715 
L 197.469786 44.342056 
L 200.19543 46.079125 
L 202.921075 45.923532 
L 205.646719 46.131609 
L 208.372364 47.486274 
L 211.098008 45.038587 
L 213.823653 44.792425 
L 216.549297 45.45892 
L 219.274942 45.930344 
L 222.000586 39.103448 
L 224.726231 38.851093 
L 227.451875 39.278393 
L 230.17752 40.534749 
L 232.903164 42.26485 
L 235.628809 42.554671 
L 238.354453 41.904742 
L 241.080098 42.724508 
L 246.531387 40.73431 
L 249.257031 39.07589 
L 257.433965 39.956036 
L 260.159609 40.559829 
L 262.885254 40.634607 
L 265.610898 40.077259 
L 268.336543 40.070292 
L 271.062187 39.324839 
L 273.787832 39.445597 
L 276.513476 37.790273 
L 279.239121 38.099137 
L 281.964765 36.552496 
L 284.69041 36.493046 
L 287.416054 37.078261 
L 290.141699 36.776674 
L 292.867343 35.094102 
L 295.592988 35.073201 
L 298.318632 35.254339 
L 301.044277 34.090875 
L 303.769921 35.242728 
L 306.495566 35.447089 
L 309.22121 38.809756 
L 311.946855 46.409508 
L 314.672499 47.603162 
L 317.398144 47.210696 
L 320.123788 45.273911 
L 322.849433 52.55164 
L 325.575077 53.801029 
L 328.300722 53.573445 
L 331.026366 58.484302 
L 333.752011 58.221884 
L 336.477655 63.767498 
L 339.2033 60.370151 
L 341.928944 61.707787 
L 344.654589 60.423564 
L 347.380233 61.603284 
L 350.105878 61.596317 
L 352.831522 63.210305 
L 355.557167 63.131347 
L 358.282811 61.937693 
L 361.008456 60.397245 
L 363.7341 69.14018 
L 369.185389 69.298095 
L 371.911034 69.641793 
L 374.636678 71.406729 
L 377.362323 60.371235 
L 380.087967 64.402411 
L 382.813612 64.662506 
L 385.539256 66.820063 
L 388.264901 67.265942 
L 390.990545 66.665244 
L 393.71619 67.055388 
L 396.441834 71.708626 
L 399.167479 72.909247 
L 401.893123 76.81378 
L 404.618768 79.024595 
L 407.344412 81.678965 
L 410.070057 86.114837 
L 412.795701 86.223985 
L 415.521346 88.824324 
L 418.24699 81.039408 
L 420.972635 83.503352 
L 423.69828 82.569793 
L 426.423924 83.09463 
L 426.423924 83.09463 
" clip-path="url(#p1dbf7cb50c)" style="fill: none; stroke: #2f7fe0; stroke-width: 1.8; stroke-linecap: square"/>
   </g>
   <g id="line2d_17">
    <path d="M 61.18756 39.788587 
L 63.913205 41.911802 
L 66.638849 44.911962 
L 69.364494 47.251129 
L 72.090138 48.802106 
L 74.815783 49.52515 
L 77.541427 49.997627 
L 80.267072 48.50156 
L 82.992716 59.507305 
L 85.718361 62.156153 
L 88.444005 67.567471 
L 91.16965 69.727852 
L 93.895294 75.439683 
L 96.620939 78.094368 
L 99.346583 82.623068 
L 102.072228 86.249311 
L 104.797872 87.160968 
L 107.523517 88.196746 
L 110.249161 89.605048 
L 112.974806 89.993867 
L 115.70045 91.219134 
L 118.426095 89.967504 
L 121.151739 92.174449 
L 123.877384 95.155687 
L 126.603028 97.202516 
L 129.328673 94.980933 
L 132.054317 97.499131 
L 134.779962 98.01691 
L 137.505607 92.854966 
L 140.231251 104.241696 
L 142.956896 106.895488 
L 145.68254 106.830972 
L 148.408185 107.164471 
L 151.133829 112.6474 
L 153.859474 109.848389 
L 156.585118 116.466754 
L 159.310763 118.768951 
L 162.036407 118.804946 
L 164.762052 89.792778 
L 167.487696 91.393148 
L 170.213341 90.591631 
L 172.938985 93.907852 
L 175.66463 93.531539 
L 178.390274 95.431967 
L 183.841563 98.173938 
L 186.567208 99.95099 
L 189.292852 98.816786 
L 192.018497 109.189037 
L 194.744141 108.609338 
L 197.469786 105.595936 
L 200.19543 108.517338 
L 202.921075 109.545429 
L 205.646719 110.933729 
L 208.372364 113.47034 
L 211.098008 112.206179 
L 213.823653 113.14329 
L 216.549297 114.99287 
L 219.274942 116.647455 
L 222.000586 111.052794 
L 224.726231 111.984798 
L 227.451875 113.595521 
L 230.17752 116.036905 
L 232.903164 118.952027 
L 235.628809 120.425313 
L 238.354453 120.960686 
L 241.080098 122.967697 
L 246.531387 123.352664 
L 249.257031 122.929918 
L 257.433965 127.369922 
L 260.159609 129.161331 
L 262.885254 130.423089 
L 265.610898 131.054039 
L 268.336543 132.236116 
L 271.062187 132.678772 
L 273.787832 133.986666 
L 276.513476 133.564048 
L 279.239121 135.059183 
L 281.964765 134.697167 
L 284.69041 135.819675 
L 287.416054 137.586459 
L 290.141699 138.467976 
L 292.867343 138.019529 
L 295.592988 139.183566 
L 298.318632 140.551367 
L 301.044277 140.575723 
L 303.769921 142.91693 
L 306.495566 144.309619 
L 309.22121 148.86089 
L 311.946855 157.695434 
L 314.672499 160.078575 
L 317.398144 160.874361 
L 320.123788 160.12361 
L 322.849433 168.631764 
L 325.575077 171.066863 
L 328.300722 172.022692 
L 331.026366 178.162023 
L 333.752011 179.084368 
L 336.477655 185.815756 
L 339.2033 183.644816 
L 341.928944 186.170004 
L 344.654589 186.070124 
L 347.380233 188.434338 
L 350.105878 189.610997 
L 352.831522 192.407961 
L 355.557167 193.512768 
L 358.282811 193.503256 
L 361.008456 193.148323 
L 363.7341 203.11921 
L 371.911034 207.182185 
L 374.636678 210.135157 
L 377.362323 200.2914 
L 380.087967 205.555661 
L 382.813612 207.012466 
L 385.539256 210.405897 
L 388.264901 212.048921 
L 390.990545 212.683917 
L 393.71619 214.269686 
L 396.441834 220.158424 
L 399.167479 222.556512 
L 401.893123 227.696975 
L 404.618768 231.107134 
L 407.344412 234.960713 
L 410.070057 240.63109 
L 412.795701 241.937744 
L 415.521346 245.770875 
L 418.24699 239.214102 
L 420.972635 242.874674 
L 423.69828 243.136316 
L 426.423924 244.855768 
L 426.423924 244.855768 
" clip-path="url(#p1dbf7cb50c)" style="fill: none; stroke: #ef4444; stroke-width: 1.8; stroke-linecap: square"/>
   </g>
   <g id="line2d_18">
    <path d="M 42.925742 44.231336 
L 444.685742 44.231336 
" clip-path="url(#p1dbf7cb50c)" style="fill: none; stroke: #9ca3af; stroke-width: 0.8; stroke-linecap: square"/>
   </g>
   <g id="patch_3">
    <path d="M 42.925742 256.354875 
L 42.925742 23.506875 
" style="fill: none; stroke: #9ca3af; stroke-width: 0.8; stroke-linejoin: miter; stroke-linecap: square"/>
   </g>
   <g id="patch_4">
    <path d="M 42.925742 256.354875 
L 444.685742 256.354875 
" style="fill: none; stroke: #9ca3af; stroke-width: 0.8; stroke-linejoin: miter; stroke-linecap: square"/>
   </g>
   <g id="text_18">
    <!-- -2.51 USDT -->
    <g style="fill: #2f7fe0" transform="translate(432.423924 87.09463) scale(0.1 -0.1)">
     <defs>
      <path id="MalgunGothic-11" d="M 356 275 
Q 356 422 459 523 
Q 563 625 700 625 
Q 838 625 941 523 
Q 1044 422 1044 275 
Q 1044 138 942 33 
Q 841 -72 700 -72 
Q 559 -72 457 29 
Q 356 131 356 275 
z
" transform="scale(0.015625)"/>
      <path id="MalgunGothic-18" d="M 3072 1403 
Q 3072 722 2636 322 
Q 2200 -78 1469 -78 
Q 828 -78 516 113 
L 516 650 
Q 994 344 1475 344 
Q 1969 344 2270 630 
Q 2572 916 2572 1372 
Q 2572 1838 2265 2092 
Q 1959 2347 1381 2347 
Q 994 2347 603 2300 
L 759 4600 
L 2869 4600 
L 2869 4147 
L 1206 4147 
L 1106 2763 
Q 1347 2784 1547 2784 
Q 2263 2784 2667 2414 
Q 3072 2044 3072 1403 
z
" transform="scale(0.015625)"/>
     </defs>
     <use xlink:href="#MalgunGothic-10"/>
     <use xlink:href="#MalgunGothic-15" transform="translate(41.015625 0)"/>
     <use xlink:href="#MalgunGothic-11" transform="translate(96.09375 0)"/>
     <use xlink:href="#MalgunGothic-18" transform="translate(117.96875 0)"/>
     <use xlink:href="#MalgunGothic-14" transform="translate(173.046875 0)"/>
     <use xlink:href="#MalgunGothic-3" transform="translate(228.125 0)"/>
     <use xlink:href="#MalgunGothic-38" transform="translate(263.28125 0)"/>
     <use xlink:href="#MalgunGothic-36" transform="translate(333.546875 0)"/>
     <use xlink:href="#MalgunGothic-27" transform="translate(387.84375 0)"/>
     <use xlink:href="#MalgunGothic-37" transform="translate(454.75 0)"/>
    </g>
   </g>
   <g id="text_19">
    <!-- -12.96 USDT -->
    <g style="fill: #ef4444" transform="translate(432.423924 248.855768) scale(0.1 -0.1)">
     <defs>
      <path id="MalgunGothic-1c" d="M 556 563 
Q 941 344 1366 344 
Q 1994 344 2347 855 
Q 2700 1366 2700 2313 
Q 2694 2306 2688 2313 
Q 2388 1713 1653 1713 
Q 1059 1713 682 2120 
Q 306 2528 306 3144 
Q 306 3806 711 4240 
Q 1116 4675 1772 4675 
Q 2466 4675 2833 4131 
Q 3200 3588 3200 2578 
Q 3200 1319 2717 620 
Q 2234 -78 1344 -78 
Q 881 -78 556 78 
L 556 563 
z
M 813 3219 
Q 813 2741 1063 2450 
Q 1313 2159 1759 2159 
Q 2147 2159 2406 2417 
Q 2666 2675 2666 3047 
Q 2666 3556 2411 3903 
Q 2156 4250 1725 4250 
Q 1322 4250 1067 3948 
Q 813 3647 813 3219 
z
" transform="scale(0.015625)"/>
     </defs>
     <use xlink:href="#MalgunGothic-10"/>
     <use xlink:href="#MalgunGothic-14" transform="translate(41.015625 0)"/>
     <use xlink:href="#MalgunGothic-15" transform="translate(96.09375 0)"/>
     <use xlink:href="#MalgunGothic-11" transform="translate(151.171875 0)"/>
     <use xlink:href="#MalgunGothic-1c" transform="translate(173.046875 0)"/>
     <use xlink:href="#MalgunGothic-19" transform="translate(228.125 0)"/>
     <use xlink:href="#MalgunGothic-3" transform="translate(283.203125 0)"/>
     <use xlink:href="#MalgunGothic-38" transform="translate(318.359375 0)"/>
     <use xlink:href="#MalgunGothic-36" transform="translate(388.625 0)"/>
     <use xlink:href="#MalgunGothic-27" transform="translate(442.921875 0)"/>
     <use xlink:href="#MalgunGothic-37" transform="translate(509.828125 0)"/>
    </g>
   </g>
   <g id="text_20">
    <!-- 135건 누적 — 방향은 본전, 통행료가 손실 -->
    <g style="fill: #6b7280" transform="translate(42.925742 17.506875) scale(0.12 -0.12)">
     <defs>
      <path id="MalgunGothic-16" d="M 416 719 
Q 891 344 1478 344 
Q 1959 344 2254 587 
Q 2550 831 2550 1247 
Q 2550 2169 1253 2169 
L 872 2169 
L 872 2591 
L 1234 2591 
Q 2388 2591 2388 3453 
Q 2388 4250 1509 4250 
Q 1022 4250 594 3916 
L 594 4413 
Q 1031 4675 1634 4675 
Q 2184 4675 2539 4372 
Q 2894 4069 2894 3581 
Q 2894 2678 1972 2409 
L 1972 2400 
Q 2469 2356 2764 2053 
Q 3059 1750 3059 1300 
Q 3059 672 2604 297 
Q 2150 -78 1450 -78 
Q 806 -78 416 169 
L 416 719 
z
" transform="scale(0.015625)"/>
      <path id="MalgunGothic-118" d="M 6566 1634 
L 0 1634 
L 0 2031 
L 6566 2031 
L 6566 1634 
z
" transform="scale(0.015625)"/>
      <path id="MalgunGothic-60f" d="M 5125 3378 
L 5125 1900 
L 4659 1900 
L 4659 5466 
L 5125 5466 
L 5125 3794 
L 6034 3794 
L 6034 3378 
L 5125 3378 
z
M 756 2344 
L 756 5184 
L 1216 5184 
L 1216 4141 
L 3059 4141 
L 3059 5184 
L 3519 5184 
L 3519 2344 
L 756 2344 
z
M 3059 3731 
L 1216 3731 
L 1216 2753 
L 3059 2753 
L 3059 3731 
z
M 3263 -481 
Q 2319 -481 1809 -176 
Q 1300 128 1300 641 
Q 1300 1144 1808 1445 
Q 2316 1747 3263 1747 
Q 4213 1747 4720 1448 
Q 5228 1150 5228 641 
Q 5228 122 4717 -179 
Q 4206 -481 3263 -481 
z
M 3263 1344 
Q 2547 1344 2172 1159 
Q 1797 975 1797 641 
Q 1797 303 2176 112 
Q 2556 -78 3263 -78 
Q 3978 -78 4358 114 
Q 4738 306 4738 641 
Q 4738 972 4363 1158 
Q 3988 1344 3263 1344 
z
" transform="scale(0.015625)"/>
      <path id="MalgunGothic-b2f" d="M 447 4325 
L 447 4744 
L 1997 4744 
L 1997 5497 
L 2463 5497 
L 2463 4744 
L 4013 4744 
L 4013 4325 
L 447 4325 
z
M 5125 2559 
L 5125 1678 
L 4659 1678 
L 4659 5466 
L 5125 5466 
L 5125 4281 
L 6034 4281 
L 6034 3878 
L 5125 3878 
L 5125 2969 
L 6034 2969 
L 6034 2559 
L 5125 2559 
z
M 2241 1966 
Q 1544 1966 1150 2252 
Q 756 2538 756 2994 
Q 756 3453 1154 3742 
Q 1553 4031 2247 4031 
Q 2941 4031 3339 3742 
Q 3738 3453 3738 2994 
Q 3738 2544 3339 2255 
Q 2941 1966 2241 1966 
z
M 2247 3634 
Q 1763 3634 1489 3456 
Q 1216 3278 1216 2994 
Q 1216 2713 1487 2538 
Q 1759 2363 2247 2363 
Q 2734 2363 3006 2538 
Q 3278 2713 3278 2994 
Q 3278 3278 3004 3456 
Q 2731 3634 2247 3634 
z
M 3263 -519 
Q 2306 -519 1803 -244 
Q 1300 31 1300 531 
Q 1300 1034 1803 1320 
Q 2306 1606 3263 1606 
Q 4222 1606 4725 1322 
Q 5228 1038 5228 531 
Q 5228 28 4723 -245 
Q 4219 -519 3263 -519 
z
M 3263 1209 
Q 1797 1209 1797 531 
Q 1797 -147 3263 -147 
Q 4738 -147 4738 531 
Q 4738 1209 3263 1209 
z
" transform="scale(0.015625)"/>
      <path id="MalgunGothic-875" d="M 3200 2950 
Q 2309 2950 1817 3287 
Q 1325 3625 1325 4159 
Q 1325 4694 1815 5028 
Q 2306 5363 3200 5363 
Q 4094 5363 4587 5028 
Q 5081 4694 5081 4159 
Q 5081 3625 4584 3287 
Q 4088 2950 3200 2950 
z
M 3200 4966 
Q 2541 4966 2177 4747 
Q 1813 4528 1813 4159 
Q 1813 3791 2177 3572 
Q 2541 3353 3200 3353 
Q 3859 3353 4223 3572 
Q 4588 3791 4588 4159 
Q 4588 4528 4223 4747 
Q 3859 4966 3200 4966 
z
M 403 1919 
L 403 2344 
L 5997 2344 
L 5997 1919 
L 403 1919 
z
M 1338 -359 
L 1338 1331 
L 1813 1331 
L 1813 56 
L 5203 56 
L 5203 -359 
L 1338 -359 
z
" transform="scale(0.015625)"/>
      <path id="MalgunGothic-642" d="M 403 1759 
L 403 2181 
L 2963 2181 
L 2963 2956 
L 1356 2956 
L 1356 5288 
L 1819 5288 
L 1819 4519 
L 4581 4519 
L 4581 5288 
L 5044 5288 
L 5044 2956 
L 3438 2956 
L 3438 2181 
L 5997 2181 
L 5997 1759 
L 403 1759 
z
M 4581 4103 
L 1819 4103 
L 1819 3366 
L 4581 3366 
L 4581 4103 
z
M 1319 -359 
L 1319 1375 
L 1784 1375 
L 1784 56 
L 5203 56 
L 5203 -359 
L 1319 -359 
z
" transform="scale(0.015625)"/>
      <path id="MalgunGothic-8b7" d="M 4878 1178 
L 4878 3525 
L 3469 3525 
L 3469 3944 
L 4878 3944 
L 4878 5466 
L 5344 5466 
L 5344 1178 
L 4878 1178 
z
M 3675 2069 
Q 3228 2344 2829 2776 
Q 2431 3209 2266 3566 
Q 2091 3150 1662 2648 
Q 1234 2147 819 1913 
L 481 2234 
Q 1125 2559 1573 3198 
Q 2022 3838 2022 4494 
L 2022 4716 
L 684 4716 
L 684 5141 
L 3788 5141 
L 3788 4716 
L 2478 4716 
L 2478 4494 
Q 2478 3894 2943 3286 
Q 3409 2678 3988 2406 
L 3675 2069 
z
M 1631 -366 
L 1631 1606 
L 2100 1606 
L 2100 44 
L 5503 44 
L 5503 -366 
L 1631 -366 
z
" transform="scale(0.015625)"/>
      <path id="MalgunGothic-f" d="M 988 725 
L 472 -850 
L 125 -850 
L 503 725 
L 988 725 
z
" transform="scale(0.015625)"/>
      <path id="MalgunGothic-a7c" d="M 403 1978 
L 403 2394 
L 2969 2394 
L 2969 3016 
L 1331 3016 
L 1331 5331 
L 5088 5331 
L 5088 4916 
L 1797 4916 
L 1797 4378 
L 4984 4378 
L 4984 3969 
L 1797 3969 
L 1797 3425 
L 5166 3425 
L 5166 3016 
L 3438 3016 
L 3438 2394 
L 5997 2394 
L 5997 1978 
L 403 1978 
z
M 3200 -556 
Q 2241 -556 1737 -271 
Q 1234 13 1234 519 
Q 1234 1025 1737 1309 
Q 2241 1594 3200 1594 
Q 4159 1594 4662 1309 
Q 5166 1025 5166 519 
Q 5166 13 4662 -271 
Q 4159 -556 3200 -556 
z
M 3200 1197 
Q 1728 1197 1728 519 
Q 1728 -159 3200 -159 
Q 4672 -159 4672 519 
Q 4672 1197 3200 1197 
z
" transform="scale(0.015625)"/>
      <path id="MalgunGothic-b2d" d="M 5075 1772 
L 5075 3231 
L 4372 3231 
L 4372 1947 
L 3909 1947 
L 3909 5344 
L 4372 5344 
L 4372 3641 
L 5075 3641 
L 5075 5466 
L 5538 5466 
L 5538 1772 
L 5075 1772 
z
M 459 4275 
L 459 4684 
L 1784 4684 
L 1784 5416 
L 2247 5416 
L 2247 4684 
L 3559 4684 
L 3559 4275 
L 459 4275 
z
M 2022 1997 
Q 1431 1997 1070 2284 
Q 709 2572 709 3003 
Q 709 3438 1071 3722 
Q 1434 4006 2022 4006 
Q 2609 4006 2971 3722 
Q 3334 3438 3334 3003 
Q 3334 2569 2976 2283 
Q 2619 1997 2022 1997 
z
M 2022 3622 
Q 1656 3622 1404 3448 
Q 1153 3275 1153 3003 
Q 1153 2738 1406 2563 
Q 1659 2388 2022 2388 
Q 2391 2388 2645 2563 
Q 2900 2738 2900 3003 
Q 2900 3275 2644 3448 
Q 2388 3622 2022 3622 
z
M 3547 -513 
Q 2556 -513 2036 -227 
Q 1516 59 1516 569 
Q 1516 1084 2037 1367 
Q 2559 1650 3547 1650 
Q 4534 1650 5054 1364 
Q 5575 1078 5575 569 
Q 5575 63 5056 -225 
Q 4538 -513 3547 -513 
z
M 3547 1253 
Q 2016 1253 2016 569 
Q 2016 -116 3547 -116 
Q 5081 -116 5081 569 
Q 5081 1253 3547 1253 
z
" transform="scale(0.015625)"/>
      <path id="MalgunGothic-54e" d="M 1234 3681 
L 4672 3681 
L 4672 4538 
L 1247 4538 
L 1247 4953 
L 5147 4953 
L 5147 3278 
L 1709 3278 
L 1709 2356 
L 5288 2356 
L 5288 1941 
L 4378 1941 
L 4378 769 
L 5997 769 
L 5997 353 
L 403 353 
L 403 769 
L 2022 769 
L 2022 1941 
L 1234 1941 
L 1234 3681 
z
M 2491 769 
L 3909 769 
L 3909 1941 
L 2491 1941 
L 2491 769 
z
" transform="scale(0.015625)"/>
      <path id="MalgunGothic-27c" d="M 5094 2566 
L 5094 -563 
L 4628 -563 
L 4628 5466 
L 5094 5466 
L 5094 2981 
L 6175 2981 
L 6175 2566 
L 5094 2566 
z
M 3609 4928 
Q 3541 2363 897 863 
L 538 1241 
Q 1484 1631 2234 2506 
Q 2984 3381 3109 4513 
L 794 4513 
L 794 4928 
L 3609 4928 
z
" transform="scale(0.015625)"/>
      <path id="MalgunGothic-768" d="M 4878 2450 
L 4878 5466 
L 5344 5466 
L 5344 2450 
L 4878 2450 
z
M 3653 2663 
Q 3266 2828 2845 3203 
Q 2425 3578 2241 3938 
Q 1884 3125 800 2509 
L 469 2822 
Q 1178 3159 1590 3681 
Q 2003 4203 2003 4813 
L 2003 5331 
L 2456 5331 
L 2456 4813 
Q 2456 4219 2907 3717 
Q 3359 3216 3969 3003 
L 3653 2663 
z
M 1631 -422 
L 1631 1069 
L 4884 1069 
L 4884 1716 
L 1631 1716 
L 1631 2131 
L 5344 2131 
L 5344 666 
L 2094 666 
L 2094 -6 
L 5509 -6 
L 5509 -422 
L 1631 -422 
z
" transform="scale(0.015625)"/>
     </defs>
     <use xlink:href="#MalgunGothic-14"/>
     <use xlink:href="#MalgunGothic-16" transform="translate(55.078125 0)"/>
     <use xlink:href="#MalgunGothic-18" transform="translate(110.15625 0)"/>
     <use xlink:href="#MalgunGothic-2a2" transform="translate(165.234375 0)"/>
     <use xlink:href="#MalgunGothic-3" transform="translate(265.234375 0)"/>
     <use xlink:href="#MalgunGothic-3fc" transform="translate(300.390625 0)"/>
     <use xlink:href="#MalgunGothic-8b6" transform="translate(400.390625 0)"/>
     <use xlink:href="#MalgunGothic-3" transform="translate(500.390625 0)"/>
     <use xlink:href="#MalgunGothic-118" transform="translate(535.546875 0)"/>
     <use xlink:href="#MalgunGothic-3" transform="translate(638.140625 0)"/>
     <use xlink:href="#MalgunGothic-60f" transform="translate(673.296875 0)"/>
     <use xlink:href="#MalgunGothic-b2f" transform="translate(773.296875 0)"/>
     <use xlink:href="#MalgunGothic-875" transform="translate(873.296875 0)"/>
     <use xlink:href="#MalgunGothic-3" transform="translate(973.296875 0)"/>
     <use xlink:href="#MalgunGothic-642" transform="translate(1008.453125 0)"/>
     <use xlink:href="#MalgunGothic-8b7" transform="translate(1108.453125 0)"/>
     <use xlink:href="#MalgunGothic-f" transform="translate(1208.453125 0)"/>
     <use xlink:href="#MalgunGothic-3" transform="translate(1230.328125 0)"/>
     <use xlink:href="#MalgunGothic-a7c" transform="translate(1265.484375 0)"/>
     <use xlink:href="#MalgunGothic-b2d" transform="translate(1365.484375 0)"/>
     <use xlink:href="#MalgunGothic-54e" transform="translate(1465.484375 0)"/>
     <use xlink:href="#MalgunGothic-27c" transform="translate(1565.484375 0)"/>
     <use xlink:href="#MalgunGothic-3" transform="translate(1665.484375 0)"/>
     <use xlink:href="#MalgunGothic-718" transform="translate(1700.640625 0)"/>
     <use xlink:href="#MalgunGothic-768" transform="translate(1800.640625 0)"/>
    </g>
   </g>
   <g id="legend_1">
    <g id="line2d_19">
     <path d="M 51.025742 215.326477 
L 60.025742 215.326477 
L 69.025742 215.326477 
" style="fill: none; stroke: #2f7fe0; stroke-width: 1.8; stroke-linecap: square"/>
    </g>
    <g id="text_21">
     <!-- 비용 전 (방향만의 성적) -->
     <g style="fill: #858e9c" transform="translate(76.225742 218.476477) scale(0.09 -0.09)">
      <defs>
       <path id="MalgunGothic-678" d="M 4884 -563 
L 4884 5466 
L 5350 5466 
L 5350 -563 
L 4884 -563 
z
M 825 1081 
L 825 5013 
L 1294 5013 
L 1294 3469 
L 3244 3469 
L 3244 5013 
L 3713 5013 
L 3713 1081 
L 825 1081 
z
M 3244 3053 
L 1294 3053 
L 1294 1497 
L 3244 1497 
L 3244 3053 
z
" transform="scale(0.015625)"/>
       <path id="MalgunGothic-848" d="M 1900 3378 
Q 1288 3678 1288 4269 
Q 1288 4803 1784 5095 
Q 2281 5388 3200 5388 
Q 4119 5388 4616 5095 
Q 5113 4803 5113 4269 
Q 5113 3669 4494 3378 
L 4494 2522 
L 5997 2522 
L 5997 2106 
L 403 2106 
L 403 2522 
L 1900 2522 
L 1900 3378 
z
M 3200 4991 
Q 1772 4991 1772 4269 
Q 1772 3928 2126 3737 
Q 2481 3547 3200 3547 
Q 3919 3547 4273 3737 
Q 4628 3928 4628 4269 
Q 4628 4991 3200 4991 
z
M 2369 2522 
L 4025 2522 
L 4025 3225 
Q 3678 3150 3200 3150 
Q 2756 3150 2369 3231 
L 2369 2522 
z
M 3200 -531 
Q 2259 -531 1764 -234 
Q 1269 63 1269 581 
Q 1269 1106 1767 1404 
Q 2266 1703 3200 1703 
Q 4134 1703 4632 1404 
Q 5131 1106 5131 581 
Q 5131 63 4636 -234 
Q 4141 -531 3200 -531 
z
M 3200 1306 
Q 2484 1306 2118 1112 
Q 1753 919 1753 581 
Q 1753 244 2117 55 
Q 2481 -134 3200 -134 
Q 3916 -134 4281 55 
Q 4647 244 4647 581 
Q 4647 922 4280 1114 
Q 3913 1306 3200 1306 
z
" transform="scale(0.015625)"/>
       <path id="MalgunGothic-583" d="M 5125 3169 
L 5125 1056 
L 4659 1056 
L 4659 5466 
L 5125 5466 
L 5125 3591 
L 6034 3591 
L 6034 3169 
L 5125 3169 
z
M 763 2241 
L 763 5100 
L 3513 5100 
L 3513 2241 
L 763 2241 
z
M 3053 4684 
L 1222 4684 
L 1222 2656 
L 3053 2656 
L 3053 4684 
z
M 1459 -331 
L 1459 1581 
L 1925 1581 
L 1925 91 
L 5294 91 
L 5294 -331 
L 1459 -331 
z
" transform="scale(0.015625)"/>
       <path id="MalgunGothic-882" d="M 5013 -563 
L 5013 5466 
L 5478 5466 
L 5478 -563 
L 5013 -563 
z
M 2450 2131 
Q 1775 2131 1315 2540 
Q 856 2950 856 3572 
Q 856 4181 1312 4593 
Q 1769 5006 2450 5006 
Q 3128 5006 3586 4590 
Q 4044 4175 4044 3572 
Q 4044 2947 3587 2539 
Q 3131 2131 2450 2131 
z
M 2450 4594 
Q 1975 4594 1656 4306 
Q 1338 4019 1338 3572 
Q 1338 3119 1664 2833 
Q 1991 2547 2450 2547 
Q 2922 2547 3244 2833 
Q 3566 3119 3566 3572 
Q 3566 4025 3247 4309 
Q 2928 4594 2450 4594 
z
M 459 531 
L 416 934 
Q 1222 934 2667 965 
Q 4113 997 4588 1038 
L 4616 634 
Q 4125 594 2679 562 
Q 1234 531 459 531 
z
" transform="scale(0.015625)"/>
       <path id="MalgunGothic-6fd" d="M 4947 1984 
L 4947 3781 
L 3541 3781 
L 3541 4200 
L 4947 4200 
L 4947 5466 
L 5416 5466 
L 5416 1984 
L 4947 1984 
z
M 3653 2328 
Q 3244 2550 2831 2950 
Q 2419 3350 2253 3700 
Q 2075 3303 1659 2858 
Q 1244 2413 819 2175 
L 488 2497 
Q 1134 2806 1571 3393 
Q 2009 3981 2009 4628 
L 2009 5269 
L 2463 5269 
L 2463 4628 
Q 2463 4025 2916 3472 
Q 3369 2919 3969 2669 
L 3653 2328 
z
M 3566 -475 
Q 2622 -475 2108 -148 
Q 1594 178 1594 697 
Q 1594 1216 2106 1539 
Q 2619 1863 3566 1863 
Q 4513 1863 5025 1539 
Q 5538 1216 5538 697 
Q 5538 178 5023 -148 
Q 4509 -475 3566 -475 
z
M 3566 1466 
Q 2850 1466 2472 1248 
Q 2094 1031 2094 697 
Q 2094 359 2473 143 
Q 2853 -72 3566 -72 
Q 4275 -72 4656 142 
Q 5038 356 5038 697 
Q 5038 1034 4659 1250 
Q 4281 1466 3566 1466 
z
" transform="scale(0.015625)"/>
      </defs>
      <use xlink:href="#MalgunGothic-678"/>
      <use xlink:href="#MalgunGothic-848" transform="translate(100 0)"/>
      <use xlink:href="#MalgunGothic-3" transform="translate(200 0)"/>
      <use xlink:href="#MalgunGothic-8b7" transform="translate(235.15625 0)"/>
      <use xlink:href="#MalgunGothic-3" transform="translate(335.15625 0)"/>
      <use xlink:href="#MalgunGothic-b" transform="translate(370.3125 0)"/>
      <use xlink:href="#MalgunGothic-60f" transform="translate(400.78125 0)"/>
      <use xlink:href="#MalgunGothic-b2f" transform="translate(500.78125 0)"/>
      <use xlink:href="#MalgunGothic-583" transform="translate(600.78125 0)"/>
      <use xlink:href="#MalgunGothic-882" transform="translate(700.78125 0)"/>
      <use xlink:href="#MalgunGothic-3" transform="translate(800.78125 0)"/>
      <use xlink:href="#MalgunGothic-6fd" transform="translate(835.9375 0)"/>
      <use xlink:href="#MalgunGothic-8b6" transform="translate(935.9375 0)"/>
      <use xlink:href="#MalgunGothic-c" transform="translate(1035.9375 0)"/>
     </g>
    </g>
    <g id="line2d_20">
     <path d="M 51.025742 229.314797 
L 60.025742 229.314797 
L 69.025742 229.314797 
" style="fill: none; stroke: #ef4444; stroke-width: 1.8; stroke-linecap: square"/>
    </g>
    <g id="text_22">
     <!-- 비용 후 (실제 계좌) -->
     <g style="fill: #858e9c" transform="translate(76.225742 232.464797) scale(0.09 -0.09)">
      <defs>
       <path id="MalgunGothic-b6f" d="M 928 4397 
L 928 4800 
L 2963 4800 
L 2963 5459 
L 3438 5459 
L 3438 4800 
L 5472 4800 
L 5472 4397 
L 928 4397 
z
M 3200 2075 
Q 2234 2075 1743 2340 
Q 1253 2606 1253 3066 
Q 1253 3528 1753 3795 
Q 2253 4063 3200 4063 
Q 4144 4063 4642 3795 
Q 5141 3528 5141 3066 
Q 5141 2606 4650 2340 
Q 4159 2075 3200 2075 
z
M 3194 3675 
Q 2484 3675 2112 3503 
Q 1741 3331 1741 3066 
Q 1741 2797 2114 2630 
Q 2488 2463 3194 2463 
Q 3900 2463 4276 2628 
Q 4653 2794 4653 3066 
Q 4653 3334 4276 3504 
Q 3900 3675 3194 3675 
z
M 3438 1209 
L 3438 -563 
L 2963 -563 
L 2963 1209 
L 403 1209 
L 403 1625 
L 5997 1625 
L 5997 1209 
L 3438 1209 
z
" transform="scale(0.015625)"/>
       <path id="MalgunGothic-8bf" d="M 5038 -563 
L 5038 5466 
L 5503 5466 
L 5503 -563 
L 5038 -563 
z
M 3944 -378 
L 3944 2975 
L 2894 2975 
L 2894 3391 
L 3944 3391 
L 3944 5344 
L 4403 5344 
L 4403 -378 
L 3944 -378 
z
M 3116 850 
Q 2306 1647 1984 2734 
Q 1881 2291 1529 1722 
Q 1178 1153 775 769 
L 409 1063 
Q 941 1438 1350 2248 
Q 1759 3059 1759 3834 
L 1759 4525 
L 634 4525 
L 634 4941 
L 3359 4941 
L 3359 4525 
L 2222 4525 
L 2222 3828 
Q 2222 3075 2589 2328 
Q 2956 1581 3469 1153 
L 3116 850 
z
" transform="scale(0.015625)"/>
       <path id="MalgunGothic-2c3" d="M 5044 -563 
L 5044 5466 
L 5509 5466 
L 5509 -563 
L 5044 -563 
z
M 3938 -366 
L 3938 1925 
L 2700 1925 
L 2700 2344 
L 3938 2344 
L 3938 3616 
L 2869 3616 
Q 2366 1953 813 878 
L 441 1197 
Q 1263 1634 1891 2575 
Q 2519 3516 2584 4531 
L 800 4531 
L 800 4941 
L 3078 4941 
Q 3056 4409 2969 4031 
L 3938 4031 
L 3938 5344 
L 4397 5344 
L 4397 -366 
L 3938 -366 
z
" transform="scale(0.015625)"/>
       <path id="MalgunGothic-8db" d="M 6222 2566 
L 5234 2566 
L 5234 -563 
L 4769 -563 
L 4769 5466 
L 5234 5466 
L 5234 2981 
L 6222 2981 
L 6222 2566 
z
M 2553 4459 
L 2553 4225 
Q 2553 3853 2997 3368 
Q 3441 2884 4191 2700 
L 3944 2328 
Q 3444 2472 2984 2812 
Q 2525 3153 2338 3519 
Q 2163 3178 1688 2803 
Q 1213 2428 738 2272 
L 459 2650 
Q 1206 2822 1653 3331 
Q 2100 3841 2100 4244 
L 2100 4459 
L 709 4459 
L 709 4884 
L 3944 4884 
L 3944 4459 
L 2553 4459 
z
M 4403 641 
Q 3888 600 2398 562 
Q 909 525 378 525 
L 325 941 
Q 988 928 2125 953 
L 2125 2338 
L 2591 2338 
L 2591 966 
Q 3888 1000 4384 1044 
L 4403 641 
z
" transform="scale(0.015625)"/>
      </defs>
      <use xlink:href="#MalgunGothic-678"/>
      <use xlink:href="#MalgunGothic-848" transform="translate(100 0)"/>
      <use xlink:href="#MalgunGothic-3" transform="translate(200 0)"/>
      <use xlink:href="#MalgunGothic-b6f" transform="translate(235.15625 0)"/>
      <use xlink:href="#MalgunGothic-3" transform="translate(335.15625 0)"/>
      <use xlink:href="#MalgunGothic-b" transform="translate(370.3125 0)"/>
      <use xlink:href="#MalgunGothic-768" transform="translate(400.78125 0)"/>
      <use xlink:href="#MalgunGothic-8bf" transform="translate(500.78125 0)"/>
      <use xlink:href="#MalgunGothic-3" transform="translate(600.78125 0)"/>
      <use xlink:href="#MalgunGothic-2c3" transform="translate(635.9375 0)"/>
      <use xlink:href="#MalgunGothic-8db" transform="translate(735.9375 0)"/>
      <use xlink:href="#MalgunGothic-c" transform="translate(835.9375 0)"/>
     </g>
    </g>
    <g id="patch_5">
     <path d="M 51.025742 246.453117 
L 69.025742 246.453117 
L 69.025742 240.153117 
L 51.025742 240.153117 
z
" style="fill: #ef4444; fill-opacity: 0.12; stroke: #ef4444; stroke-opacity: 0.12; stroke-linejoin: miter"/>
    </g>
    <g id="text_23">
     <!-- 통행료 -->
     <g style="fill: #858e9c" transform="translate(76.225742 246.453117) scale(0.09 -0.09)">
      <use xlink:href="#MalgunGothic-a7c"/>
      <use xlink:href="#MalgunGothic-b2d" transform="translate(100 0)"/>
      <use xlink:href="#MalgunGothic-54e" transform="translate(200 0)"/>
     </g>
    </g>
   </g>
  </g>
 </g>
 <defs>
  <clipPath id="p1dbf7cb50c">
   <rect x="42.925742" y="23.506875" width="401.76" height="232.848"/>
  </clipPath>
 </defs>
</svg>
