<?xml version="1.0" encoding="utf-8" standalone="no"?>
<!DOCTYPE svg PUBLIC "-//W3C//DTD SVG 1.1//EN"
  "http://www.w3.org/Graphics/SVG/1.1/DTD/svg11.dtd">
<svg xmlns:xlink="http://www.w3.org/1999/xlink" width="498.425937pt" height="303.059227pt" viewBox="0 0 498.425937 303.059227" xmlns="http://www.w3.org/2000/svg" version="1.1">
 <metadata>
  <rdf:RDF xmlns:dc="http://purl.org/dc/elements/1.1/" xmlns:cc="http://creativecommons.org/ns#" xmlns:rdf="http://www.w3.org/1999/02/22-rdf-syntax-ns#">
   <cc:Work>
    <dc:type rdf:resource="http://purl.org/dc/dcmitype/StillImage"/>
    <dc:date>2026-08-23T16:30:02.832158</dc:date>
    <dc:format>image/svg+xml</dc:format>
    <dc:creator>
     <cc:Agent>
      <dc:title>Matplotlib v3.11.0, https://matplotlib.org/</dc:title>
     </cc:Agent>
    </dc:creator>
   </cc:Work>
  </rdf:RDF>
 </metadata>
 <defs>
  <style type="text/css">*{stroke-linejoin: round; stroke-linecap: butt}</style>
 </defs>
 <g id="figure_1">
  <g id="patch_1">
   <path d="M 0 303.059227 
L 498.425937 303.059227 
L 498.425937 0 
L 0 0 
L 0 303.059227 
z
" style="fill: none"/>
  </g>
  <g id="axes_1">
   <g id="patch_2">
    <path d="M 33.665937 272.328328 
L 491.225937 272.328328 
L 491.225937 33.936328 
L 33.665937 33.936328 
L 33.665937 272.328328 
z
" style="fill: none"/>
   </g>
   <g id="matplotlib.axis_1">
    <g id="xtick_1">
     <g id="line2d_1"/>
     <g id="text_1">
      <!-- 7월 -->
      <g style="fill: #858e9c" transform="translate(79.320444 283.941922) scale(0.095 -0.095)">
       <defs>
        <path id="MalgunGothic-1a" d="M 3213 4297 
Q 2478 3006 2064 1918 
Q 1650 831 1550 0 
L 1009 0 
Q 1084 531 1290 1176 
Q 1497 1822 1815 2537 
Q 2134 3253 2631 4147 
L 291 4147 
L 291 4600 
L 3213 4600 
L 3213 4297 
z
" transform="scale(0.015625)"/>
        <path id="MalgunGothic-856" d="M 4984 1888 
L 4984 2125 
L 3706 2125 
L 3706 2509 
L 4984 2509 
L 4984 5466 
L 5453 5466 
L 5453 1888 
L 4984 1888 
z
M 2591 3513 
Q 1894 3513 1491 3769 
Q 1088 4025 1088 4475 
Q 1088 4925 1494 5179 
Q 1900 5434 2591 5434 
Q 3281 5434 3689 5181 
Q 4097 4928 4097 4475 
Q 4097 4019 3692 3766 
Q 3288 3513 2591 3513 
z
M 2591 5056 
Q 2113 5056 1834 4898 
Q 1556 4741 1556 4475 
Q 1556 4206 1836 4048 
Q 2116 3891 2591 3891 
Q 3069 3891 3351 4047 
Q 3634 4203 3634 4475 
Q 3634 4741 3353 4898 
Q 3072 5056 2591 5056 
z
M 4525 2869 
Q 3341 2791 2822 2784 
L 2822 1913 
L 2363 1913 
L 2363 2766 
L 653 2706 
L 581 3122 
Q 1975 3122 4494 3256 
L 4525 2869 
z
M 1569 -447 
L 1569 806 
L 4997 806 
L 4997 1228 
L 1569 1228 
L 1569 1638 
L 5459 1638 
L 5459 416 
L 2028 416 
L 2028 -38 
L 5619 -38 
L 5619 -447 
L 1569 -447 
z
" transform="scale(0.015625)"/>
       </defs>
       <use xlink:href="#MalgunGothic-1a"/>
       <use xlink:href="#MalgunGothic-856" transform="translate(55.078125 0)"/>
      </g>
      <!-- 강(20%↑) -->
      <g style="fill: #858e9c" transform="translate(65.32353 293.957371) scale(0.095 -0.095)">
       <defs>
        <path id="MalgunGothic-288" d="M 5125 3372 
L 5125 2009 
L 4659 2009 
L 4659 5466 
L 5125 5466 
L 5125 3809 
L 6034 3809 
L 6034 3372 
L 5125 3372 
z
M 3513 5113 
Q 3397 3850 2551 3039 
Q 1706 2228 794 1869 
L 459 2247 
Q 1388 2541 2108 3225 
Q 2828 3909 2963 4697 
L 831 4697 
L 831 5113 
L 3513 5113 
z
M 3263 -453 
Q 2325 -453 1806 -128 
Q 1288 197 1288 716 
Q 1288 1231 1803 1556 
Q 2319 1881 3263 1881 
Q 4216 1881 4731 1557 
Q 5247 1234 5247 716 
Q 5247 197 4726 -128 
Q 4206 -453 3263 -453 
z
M 3263 1478 
Q 2559 1478 2168 1265 
Q 1778 1053 1778 716 
Q 1778 378 2162 164 
Q 2547 -50 3263 -50 
Q 3981 -50 4365 164 
Q 4750 378 4750 716 
Q 4750 1053 4359 1265 
Q 3969 1478 3263 1478 
z
" transform="scale(0.015625)"/>
        <path id="MalgunGothic-b" d="M 1438 -1044 
Q 447 88 447 1753 
Q 447 3431 1438 4600 
L 1888 4600 
Q 878 3372 878 1759 
Q 878 153 1881 -1044 
L 1438 -1044 
z
" transform="scale(0.015625)"/>
        <path id="MalgunGothic-15" d="M 2519 3372 
Q 2519 3784 2275 4018 
Q 2031 4253 1628 4253 
Q 1341 4253 1053 4104 
Q 766 3956 534 3697 
L 534 4234 
Q 981 4675 1691 4675 
Q 2281 4675 2642 4334 
Q 3003 3994 3003 3416 
Q 3003 2919 2772 2545 
Q 2541 2172 1984 1775 
Q 1459 1406 1254 1215 
Q 1050 1025 967 854 
Q 884 684 884 450 
L 3116 450 
L 3116 0 
L 356 0 
L 356 225 
Q 356 603 461 870 
Q 566 1138 811 1392 
Q 1056 1647 1597 2022 
Q 2091 2363 2305 2670 
Q 2519 2978 2519 3372 
z
" transform="scale(0.015625)"/>
        <path id="MalgunGothic-13" d="M 278 2206 
Q 278 3425 675 4050 
Q 1072 4675 1819 4675 
Q 3253 4675 3253 2319 
Q 3253 1156 2854 539 
Q 2456 -78 1716 -78 
Q 1016 -78 647 520 
Q 278 1119 278 2206 
z
M 784 2231 
Q 784 344 1769 344 
Q 2747 344 2747 2259 
Q 2747 4250 1794 4250 
Q 784 4250 784 2231 
z
" transform="scale(0.015625)"/>
        <path id="MalgunGothic-8" d="M 253 3444 
Q 253 3997 547 4331 
Q 841 4666 1353 4666 
Q 1847 4666 2115 4355 
Q 2384 4044 2384 3509 
Q 2384 2972 2082 2633 
Q 1781 2294 1288 2294 
Q 816 2294 534 2608 
Q 253 2922 253 3444 
z
M 666 3475 
Q 666 3091 841 2864 
Q 1016 2638 1322 2638 
Q 1631 2638 1803 2863 
Q 1975 3088 1975 3494 
Q 1975 3894 1804 4112 
Q 1634 4331 1334 4331 
Q 1022 4331 844 4098 
Q 666 3866 666 3475 
z
M 4350 4600 
L 1403 -34 
L 966 -34 
L 3909 4600 
L 4350 4600 
z
M 2988 1078 
Q 2988 1641 3284 1977 
Q 3581 2313 4081 2313 
Q 4569 2313 4841 2000 
Q 5113 1688 5113 1138 
Q 5113 600 4809 264 
Q 4506 -72 4019 -72 
Q 3550 -72 3269 245 
Q 2988 563 2988 1078 
z
M 3394 1103 
Q 3394 725 3570 498 
Q 3747 272 4050 272 
Q 4356 272 4529 501 
Q 4703 731 4703 1134 
Q 4703 1534 4534 1748 
Q 4366 1963 4066 1963 
Q 3753 1963 3573 1731 
Q 3394 1500 3394 1103 
z
" transform="scale(0.015625)"/>
        <path id="MalgunGothic-224" d="M 2859 3584 
Q 2559 3150 2081 2931 
L 1931 3225 
Q 2347 3400 2623 3767 
Q 2900 4134 2900 4506 
L 3181 4506 
Q 3181 4138 3454 3769 
Q 3728 3400 4147 3225 
L 4000 2931 
Q 3547 3134 3225 3591 
L 3225 -666 
L 2859 -666 
L 2859 3584 
z
" transform="scale(0.015625)"/>
        <path id="MalgunGothic-c" d="M 81 -1044 
Q 1081 150 1081 1759 
Q 1081 3378 72 4600 
L 525 4600 
Q 1522 3431 1522 1753 
Q 1522 88 525 -1044 
L 81 -1044 
z
" transform="scale(0.015625)"/>
       </defs>
       <use xlink:href="#MalgunGothic-288"/>
       <use xlink:href="#MalgunGothic-b" transform="translate(100 0)"/>
       <use xlink:href="#MalgunGothic-15" transform="translate(130.46875 0)"/>
       <use xlink:href="#MalgunGothic-13" transform="translate(185.546875 0)"/>
       <use xlink:href="#MalgunGothic-8" transform="translate(240.625 0)"/>
       <use xlink:href="#MalgunGothic-224" transform="translate(324.265625 0)"/>
       <use xlink:href="#MalgunGothic-c" transform="translate(419.28125 0)"/>
      </g>
     </g>
    </g>
    <g id="xtick_2">
     <g id="line2d_2"/>
     <g id="text_2">
      <!-- 8월 -->
      <g style="fill: #858e9c" transform="translate(196.493299 283.941922) scale(0.095 -0.095)">
       <defs>
        <path id="MalgunGothic-1b" d="M 303 1281 
Q 303 1669 539 2011 
Q 775 2353 1153 2494 
Q 856 2647 675 2915 
Q 494 3184 494 3500 
Q 494 3828 659 4098 
Q 825 4369 1122 4522 
Q 1419 4675 1778 4675 
Q 2334 4675 2700 4342 
Q 3066 4009 3066 3500 
Q 3066 3181 2881 2914 
Q 2697 2647 2413 2494 
Q 2788 2350 3022 2009 
Q 3256 1669 3256 1281 
Q 3256 672 2843 297 
Q 2431 -78 1778 -78 
Q 1131 -78 717 301 
Q 303 681 303 1281 
z
M 809 1328 
Q 809 878 1081 611 
Q 1353 344 1781 344 
Q 2206 344 2482 619 
Q 2759 894 2759 1328 
Q 2759 1731 2482 2011 
Q 2206 2291 1781 2291 
Q 1372 2291 1090 2020 
Q 809 1750 809 1328 
z
M 1003 3459 
Q 1003 3125 1234 2900 
Q 1466 2675 1781 2675 
Q 2097 2675 2330 2900 
Q 2563 3125 2563 3459 
Q 2563 3803 2341 4026 
Q 2119 4250 1781 4250 
Q 1450 4250 1226 4029 
Q 1003 3809 1003 3459 
z
" transform="scale(0.015625)"/>
       </defs>
       <use xlink:href="#MalgunGothic-1b"/>
       <use xlink:href="#MalgunGothic-856" transform="translate(55.078125 0)"/>
      </g>
      <!-- 강(20%↑) -->
      <g style="fill: #858e9c" transform="translate(182.496385 293.957371) scale(0.095 -0.095)">
       <use xlink:href="#MalgunGothic-288"/>
       <use xlink:href="#MalgunGothic-b" transform="translate(100 0)"/>
       <use xlink:href="#MalgunGothic-15" transform="translate(130.46875 0)"/>
       <use xlink:href="#MalgunGothic-13" transform="translate(185.546875 0)"/>
       <use xlink:href="#MalgunGothic-8" transform="translate(240.625 0)"/>
       <use xlink:href="#MalgunGothic-224" transform="translate(324.265625 0)"/>
       <use xlink:href="#MalgunGothic-c" transform="translate(419.28125 0)"/>
      </g>
     </g>
    </g>
    <g id="xtick_3">
     <g id="line2d_3"/>
     <g id="text_3">
      <!-- 7월 -->
      <g style="fill: #858e9c" transform="translate(313.666154 283.941922) scale(0.095 -0.095)">
       <use xlink:href="#MalgunGothic-1a"/>
       <use xlink:href="#MalgunGothic-856" transform="translate(55.078125 0)"/>
      </g>
      <!-- 약 -->
      <g style="fill: #858e9c" transform="translate(316.282365 293.957371) scale(0.095 -0.095)">
       <defs>
        <path id="MalgunGothic-7df" d="M 5125 2828 
L 5125 2100 
L 4659 2100 
L 4659 5466 
L 5125 5466 
L 5125 4588 
L 6034 4588 
L 6034 4178 
L 5125 4178 
L 5125 3238 
L 6034 3238 
L 6034 2828 
L 5125 2828 
z
M 2150 2394 
Q 1478 2394 1050 2808 
Q 622 3222 622 3847 
Q 622 4469 1047 4881 
Q 1472 5294 2150 5294 
Q 2828 5294 3258 4883 
Q 3688 4472 3688 3847 
Q 3688 3216 3256 2805 
Q 2825 2394 2150 2394 
z
M 2150 4897 
Q 1678 4897 1383 4601 
Q 1088 4306 1088 3847 
Q 1088 3381 1381 3089 
Q 1675 2797 2150 2797 
Q 2628 2797 2923 3090 
Q 3219 3384 3219 3847 
Q 3219 4300 2923 4598 
Q 2628 4897 2150 4897 
z
M 4659 -563 
L 4659 1350 
L 1259 1350 
L 1259 1766 
L 5125 1766 
L 5125 -563 
L 4659 -563 
z
" transform="scale(0.015625)"/>
       </defs>
       <use xlink:href="#MalgunGothic-7df"/>
      </g>
     </g>
    </g>
    <g id="xtick_4">
     <g id="line2d_4"/>
     <g id="text_4">
      <!-- 8월 -->
      <g style="fill: #858e9c" transform="translate(430.83901 283.941922) scale(0.095 -0.095)">
       <use xlink:href="#MalgunGothic-1b"/>
       <use xlink:href="#MalgunGothic-856" transform="translate(55.078125 0)"/>
      </g>
      <!-- 약 -->
      <g style="fill: #858e9c" transform="translate(433.45522 293.957371) scale(0.095 -0.095)">
       <use xlink:href="#MalgunGothic-7df"/>
      </g>
     </g>
    </g>
   </g>
   <g id="matplotlib.axis_2">
    <g id="ytick_1">
     <g id="line2d_5">
      <path d="M 33.665937 256.074328 
L 491.225937 256.074328 
" clip-path="url(#p4a5c9f5c46)" style="fill: none; stroke: #9ca3af; stroke-opacity: 0.16; stroke-width: 0.7; stroke-linecap: square"/>
     </g>
     <g id="line2d_6"/>
     <g id="text_5">
      <!-- -7% -->
      <g style="fill: #858e9c" transform="translate(10.395156 260.473254) scale(0.11 -0.11)">
       <defs>
        <path id="MalgunGothic-10" d="M 2213 1634 
L 463 1634 
L 463 2031 
L 2213 2031 
L 2213 1634 
z
" transform="scale(0.015625)"/>
       </defs>
       <use xlink:href="#MalgunGothic-10"/>
       <use xlink:href="#MalgunGothic-1a" transform="translate(41.015625 0)"/>
       <use xlink:href="#MalgunGothic-8" transform="translate(96.09375 0)"/>
      </g>
     </g>
    </g>
    <g id="ytick_2">
     <g id="line2d_7">
      <path d="M 33.665937 228.984328 
L 491.225937 228.984328 
" clip-path="url(#p4a5c9f5c46)" style="fill: none; stroke: #9ca3af; stroke-opacity: 0.16; stroke-width: 0.7; stroke-linecap: square"/>
     </g>
     <g id="line2d_8"/>
     <g id="text_6">
      <!-- -6% -->
      <g style="fill: #858e9c" transform="translate(10.395156 233.383254) scale(0.11 -0.11)">
       <defs>
        <path id="MalgunGothic-19" d="M 2981 4069 
Q 2619 4250 2228 4250 
Q 1591 4250 1228 3689 
Q 866 3128 869 2213 
L 884 2213 
Q 1203 2872 1938 2872 
Q 2547 2872 2903 2478 
Q 3259 2084 3259 1450 
Q 3259 797 2857 359 
Q 2456 -78 1825 -78 
Q 1116 -78 736 478 
Q 356 1034 356 2019 
Q 356 3181 847 3928 
Q 1338 4675 2222 4675 
Q 2700 4675 2981 4544 
L 2981 4069 
z
M 906 1506 
Q 906 1022 1165 683 
Q 1425 344 1844 344 
Q 2247 344 2498 645 
Q 2750 947 2750 1388 
Q 2750 1888 2509 2167 
Q 2269 2447 1838 2447 
Q 1444 2447 1175 2173 
Q 906 1900 906 1506 
z
" transform="scale(0.015625)"/>
       </defs>
       <use xlink:href="#MalgunGothic-10"/>
       <use xlink:href="#MalgunGothic-19" transform="translate(41.015625 0)"/>
       <use xlink:href="#MalgunGothic-8" transform="translate(96.09375 0)"/>
      </g>
     </g>
    </g>
    <g id="ytick_3">
     <g id="line2d_9">
      <path d="M 33.665937 201.894328 
L 491.225937 201.894328 
" clip-path="url(#p4a5c9f5c46)" style="fill: none; stroke: #9ca3af; stroke-opacity: 0.16; stroke-width: 0.7; stroke-linecap: square"/>
     </g>
     <g id="line2d_10"/>
     <g id="text_7">
      <!-- -5% -->
      <g style="fill: #858e9c" transform="translate(10.395156 206.293254) scale(0.11 -0.11)">
       <defs>
        <path id="MalgunGothic-18" d="M 3072 1403 
Q 3072 722 2636 322 
Q 2200 -78 1469 -78 
Q 828 -78 516 113 
L 516 650 
Q 994 344 1475 344 
Q 1969 344 2270 630 
Q 2572 916 2572 1372 
Q 2572 1838 2265 2092 
Q 1959 2347 1381 2347 
Q 994 2347 603 2300 
L 759 4600 
L 2869 4600 
L 2869 4147 
L 1206 4147 
L 1106 2763 
Q 1347 2784 1547 2784 
Q 2263 2784 2667 2414 
Q 3072 2044 3072 1403 
z
" transform="scale(0.015625)"/>
       </defs>
       <use xlink:href="#MalgunGothic-10"/>
       <use xlink:href="#MalgunGothic-18" transform="translate(41.015625 0)"/>
       <use xlink:href="#MalgunGothic-8" transform="translate(96.09375 0)"/>
      </g>
     </g>
    </g>
    <g id="ytick_4">
     <g id="line2d_11">
      <path d="M 33.665937 174.804328 
L 491.225937 174.804328 
" clip-path="url(#p4a5c9f5c46)" style="fill: none; stroke: #9ca3af; stroke-opacity: 0.16; stroke-width: 0.7; stroke-linecap: square"/>
     </g>
     <g id="line2d_12"/>
     <g id="text_8">
      <!-- -4% -->
      <g style="fill: #858e9c" transform="translate(10.395156 179.203254) scale(0.11 -0.11)">
       <defs>
        <path id="MalgunGothic-17" d="M 2703 4600 
L 2703 1563 
L 3309 1563 
L 3309 1113 
L 2703 1113 
L 2703 0 
L 2213 0 
L 2213 1113 
L 50 1113 
L 50 1534 
Q 728 2297 1295 3109 
Q 1863 3922 2172 4600 
L 2703 4600 
z
M 625 1563 
L 2213 1563 
L 2213 3831 
Q 1613 2788 959 1981 
L 625 1563 
z
" transform="scale(0.015625)"/>
       </defs>
       <use xlink:href="#MalgunGothic-10"/>
       <use xlink:href="#MalgunGothic-17" transform="translate(41.015625 0)"/>
       <use xlink:href="#MalgunGothic-8" transform="translate(96.09375 0)"/>
      </g>
     </g>
    </g>
    <g id="ytick_5">
     <g id="line2d_13">
      <path d="M 33.665937 147.714328 
L 491.225937 147.714328 
" clip-path="url(#p4a5c9f5c46)" style="fill: none; stroke: #9ca3af; stroke-opacity: 0.16; stroke-width: 0.7; stroke-linecap: square"/>
     </g>
     <g id="line2d_14"/>
     <g id="text_9">
      <!-- -3% -->
      <g style="fill: #858e9c" transform="translate(10.395156 152.113254) scale(0.11 -0.11)">
       <defs>
        <path id="MalgunGothic-16" d="M 416 719 
Q 891 344 1478 344 
Q 1959 344 2254 587 
Q 2550 831 2550 1247 
Q 2550 2169 1253 2169 
L 872 2169 
L 872 2591 
L 1234 2591 
Q 2388 2591 2388 3453 
Q 2388 4250 1509 4250 
Q 1022 4250 594 3916 
L 594 4413 
Q 1031 4675 1634 4675 
Q 2184 4675 2539 4372 
Q 2894 4069 2894 3581 
Q 2894 2678 1972 2409 
L 1972 2400 
Q 2469 2356 2764 2053 
Q 3059 1750 3059 1300 
Q 3059 672 2604 297 
Q 2150 -78 1450 -78 
Q 806 -78 416 169 
L 416 719 
z
" transform="scale(0.015625)"/>
       </defs>
       <use xlink:href="#MalgunGothic-10"/>
       <use xlink:href="#MalgunGothic-16" transform="translate(41.015625 0)"/>
       <use xlink:href="#MalgunGothic-8" transform="translate(96.09375 0)"/>
      </g>
     </g>
    </g>
    <g id="ytick_6">
     <g id="line2d_15">
      <path d="M 33.665937 120.624328 
L 491.225937 120.624328 
" clip-path="url(#p4a5c9f5c46)" style="fill: none; stroke: #9ca3af; stroke-opacity: 0.16; stroke-width: 0.7; stroke-linecap: square"/>
     </g>
     <g id="line2d_16"/>
     <g id="text_10">
      <!-- -2% -->
      <g style="fill: #858e9c" transform="translate(10.395156 125.023254) scale(0.11 -0.11)">
       <use xlink:href="#MalgunGothic-10"/>
       <use xlink:href="#MalgunGothic-15" transform="translate(41.015625 0)"/>
       <use xlink:href="#MalgunGothic-8" transform="translate(96.09375 0)"/>
      </g>
     </g>
    </g>
    <g id="ytick_7">
     <g id="line2d_17">
      <path d="M 33.665937 93.534328 
L 491.225937 93.534328 
" clip-path="url(#p4a5c9f5c46)" style="fill: none; stroke: #9ca3af; stroke-opacity: 0.16; stroke-width: 0.7; stroke-linecap: square"/>
     </g>
     <g id="line2d_18"/>
     <g id="text_11">
      <!-- -1% -->
      <g style="fill: #858e9c" transform="translate(10.395156 97.933254) scale(0.11 -0.11)">
       <defs>
        <path id="MalgunGothic-14" d="M 2231 0 
L 1734 0 
L 1734 3972 
Q 1591 3828 1266 3661 
Q 941 3494 672 3428 
L 672 3959 
Q 1016 4056 1409 4275 
Q 1803 4494 2031 4700 
L 2231 4700 
L 2231 0 
z
" transform="scale(0.015625)"/>
       </defs>
       <use xlink:href="#MalgunGothic-10"/>
       <use xlink:href="#MalgunGothic-14" transform="translate(41.015625 0)"/>
       <use xlink:href="#MalgunGothic-8" transform="translate(96.09375 0)"/>
      </g>
     </g>
    </g>
    <g id="ytick_8">
     <g id="line2d_19">
      <path d="M 33.665937 66.444328 
L 491.225937 66.444328 
" clip-path="url(#p4a5c9f5c46)" style="fill: none; stroke: #9ca3af; stroke-opacity: 0.16; stroke-width: 0.7; stroke-linecap: square"/>
     </g>
     <g id="line2d_20"/>
     <g id="text_12">
      <!-- 0 -->
      <g style="fill: #858e9c" transform="translate(24.107344 70.843254) scale(0.11 -0.11)">
       <use xlink:href="#MalgunGothic-13"/>
      </g>
     </g>
    </g>
    <g id="ytick_9">
     <g id="line2d_21">
      <path d="M 33.665937 39.354328 
L 491.225937 39.354328 
" clip-path="url(#p4a5c9f5c46)" style="fill: none; stroke: #9ca3af; stroke-opacity: 0.16; stroke-width: 0.7; stroke-linecap: square"/>
     </g>
     <g id="line2d_22"/>
     <g id="text_13">
      <!-- +1% -->
      <g style="fill: #858e9c" transform="translate(7.2 43.753254) scale(0.11 -0.11)">
       <defs>
        <path id="MalgunGothic-e" d="M 3750 1706 
L 2450 1706 
L 2450 413 
L 2041 413 
L 2041 1706 
L 744 1706 
L 744 2122 
L 2041 2122 
L 2041 3416 
L 2450 3416 
L 2450 2122 
L 3750 2122 
L 3750 1706 
z
" transform="scale(0.015625)"/>
       </defs>
       <use xlink:href="#MalgunGothic-e"/>
       <use xlink:href="#MalgunGothic-14" transform="translate(70.0625 0)"/>
       <use xlink:href="#MalgunGothic-8" transform="translate(125.140625 0)"/>
      </g>
     </g>
    </g>
   </g>
   <g id="patch_3">
    <path d="M 54.464119 66.444328 
L 118.90919 66.444328 
L 118.90919 234.402328 
L 54.464119 234.402328 
z
" clip-path="url(#p4a5c9f5c46)" style="fill: #2f7fe0; opacity: 0.85"/>
   </g>
   <g id="patch_4">
    <path d="M 171.636975 66.444328 
L 236.082045 66.444328 
L 236.082045 149.068828 
L 171.636975 149.068828 
z
" clip-path="url(#p4a5c9f5c46)" style="fill: #2f7fe0; opacity: 0.85"/>
   </g>
   <g id="patch_5">
    <path d="M 288.80983 66.444328 
L 353.2549 66.444328 
L 353.2549 114.664528 
L 288.80983 114.664528 
z
" clip-path="url(#p4a5c9f5c46)" style="fill: #2f7fe0; opacity: 0.85"/>
   </g>
   <g id="patch_6">
    <path d="M 405.982685 66.444328 
L 470.427756 66.444328 
L 470.427756 102.203128 
L 405.982685 102.203128 
z
" clip-path="url(#p4a5c9f5c46)" style="fill: #2f7fe0; opacity: 0.85"/>
   </g>
   <g id="line2d_23">
    <path d="M 33.665937 66.444328 
L 491.225937 66.444328 
" clip-path="url(#p4a5c9f5c46)" style="fill: none; stroke: #9ca3af; stroke-linecap: square"/>
   </g>
   <g id="patch_7">
    <path d="M 33.665937 272.328328 
L 491.225937 272.328328 
" style="fill: none; stroke: #9ca3af; stroke-width: 0.8; stroke-linejoin: miter; stroke-linecap: square"/>
   </g>
   <g id="text_14">
    <!-- -6.20%p -->
    <g style="fill: #2f7fe0" transform="translate(68.095248 251.069175) scale(0.1 -0.1)">
     <defs>
      <path id="MalgunGothic-11" d="M 356 275 
Q 356 422 459 523 
Q 563 625 700 625 
Q 838 625 941 523 
Q 1044 422 1044 275 
Q 1044 138 942 33 
Q 841 -72 700 -72 
Q 559 -72 457 29 
Q 356 131 356 275 
z
" transform="scale(0.015625)"/>
      <path id="MalgunGothic-53" d="M 1034 481 
L 1034 -1513 
L 538 -1513 
L 538 3284 
L 1034 3284 
L 1034 2703 
L 1047 2703 
Q 1438 3359 2184 3359 
Q 2809 3359 3171 2920 
Q 3534 2481 3534 1738 
Q 3534 906 3126 414 
Q 2719 -78 2034 -78 
Q 1394 -78 1047 481 
L 1034 481 
z
M 1034 1331 
Q 1034 922 1307 633 
Q 1581 344 1991 344 
Q 2475 344 2751 716 
Q 3028 1088 3028 1753 
Q 3028 2300 2767 2620 
Q 2506 2941 2072 2941 
Q 1619 2941 1326 2619 
Q 1034 2297 1034 1806 
L 1034 1331 
z
" transform="scale(0.015625)"/>
     </defs>
     <use xlink:href="#MalgunGothic-10"/>
     <use xlink:href="#MalgunGothic-19" transform="translate(41.015625 0)"/>
     <use xlink:href="#MalgunGothic-11" transform="translate(96.09375 0)"/>
     <use xlink:href="#MalgunGothic-15" transform="translate(117.96875 0)"/>
     <use xlink:href="#MalgunGothic-13" transform="translate(173.046875 0)"/>
     <use xlink:href="#MalgunGothic-8" transform="translate(228.125 0)"/>
     <use xlink:href="#MalgunGothic-53" transform="translate(311.765625 0)"/>
    </g>
   </g>
   <g id="text_15">
    <!-- t=-3.14 -->
    <g style="fill: #6b7280" transform="translate(70.885483 60.484528) scale(0.095 -0.095)">
     <defs>
      <path id="MalgunGothic-57" d="M 2031 31 
Q 1844 -72 1553 -72 
Q 706 -72 706 881 
L 706 2856 
L 138 2856 
L 138 3284 
L 706 3284 
L 706 4091 
L 1200 4250 
L 1200 3284 
L 2031 3284 
L 2031 2856 
L 1200 2856 
L 1200 972 
Q 1200 625 1315 487 
Q 1431 350 1691 350 
Q 1888 350 2031 459 
L 2031 31 
z
" transform="scale(0.015625)"/>
      <path id="MalgunGothic-20" d="M 3750 2397 
L 744 2397 
L 744 2803 
L 3750 2803 
L 3750 2397 
z
M 3750 1031 
L 744 1031 
L 744 1441 
L 3750 1441 
L 3750 1031 
z
" transform="scale(0.015625)"/>
     </defs>
     <use xlink:href="#MalgunGothic-57"/>
     <use xlink:href="#MalgunGothic-20" transform="translate(34.46875 0)"/>
     <use xlink:href="#MalgunGothic-10" transform="translate(104.53125 0)"/>
     <use xlink:href="#MalgunGothic-16" transform="translate(145.546875 0)"/>
     <use xlink:href="#MalgunGothic-11" transform="translate(200.625 0)"/>
     <use xlink:href="#MalgunGothic-14" transform="translate(222.5 0)"/>
     <use xlink:href="#MalgunGothic-17" transform="translate(277.578125 0)"/>
    </g>
   </g>
   <g id="text_16">
    <!-- -3.05%p -->
    <g style="fill: #2f7fe0" transform="translate(185.268104 165.735675) scale(0.1 -0.1)">
     <use xlink:href="#MalgunGothic-10"/>
     <use xlink:href="#MalgunGothic-16" transform="translate(41.015625 0)"/>
     <use xlink:href="#MalgunGothic-11" transform="translate(96.09375 0)"/>
     <use xlink:href="#MalgunGothic-13" transform="translate(117.96875 0)"/>
     <use xlink:href="#MalgunGothic-18" transform="translate(173.046875 0)"/>
     <use xlink:href="#MalgunGothic-8" transform="translate(228.125 0)"/>
     <use xlink:href="#MalgunGothic-53" transform="translate(311.765625 0)"/>
    </g>
   </g>
   <g id="text_17">
    <!-- t=-1.59 -->
    <g style="fill: #9ca3af" transform="translate(188.058338 60.484528) scale(0.095 -0.095)">
     <defs>
      <path id="MalgunGothic-1c" d="M 556 563 
Q 941 344 1366 344 
Q 1994 344 2347 855 
Q 2700 1366 2700 2313 
Q 2694 2306 2688 2313 
Q 2388 1713 1653 1713 
Q 1059 1713 682 2120 
Q 306 2528 306 3144 
Q 306 3806 711 4240 
Q 1116 4675 1772 4675 
Q 2466 4675 2833 4131 
Q 3200 3588 3200 2578 
Q 3200 1319 2717 620 
Q 2234 -78 1344 -78 
Q 881 -78 556 78 
L 556 563 
z
M 813 3219 
Q 813 2741 1063 2450 
Q 1313 2159 1759 2159 
Q 2147 2159 2406 2417 
Q 2666 2675 2666 3047 
Q 2666 3556 2411 3903 
Q 2156 4250 1725 4250 
Q 1322 4250 1067 3948 
Q 813 3647 813 3219 
z
" transform="scale(0.015625)"/>
     </defs>
     <use xlink:href="#MalgunGothic-57"/>
     <use xlink:href="#MalgunGothic-20" transform="translate(34.46875 0)"/>
     <use xlink:href="#MalgunGothic-10" transform="translate(104.53125 0)"/>
     <use xlink:href="#MalgunGothic-14" transform="translate(145.546875 0)"/>
     <use xlink:href="#MalgunGothic-11" transform="translate(200.625 0)"/>
     <use xlink:href="#MalgunGothic-18" transform="translate(222.5 0)"/>
     <use xlink:href="#MalgunGothic-1c" transform="translate(277.578125 0)"/>
    </g>
   </g>
   <g id="text_18">
    <!-- -1.78%p -->
    <g style="fill: #2f7fe0" transform="translate(302.440959 131.331375) scale(0.1 -0.1)">
     <use xlink:href="#MalgunGothic-10"/>
     <use xlink:href="#MalgunGothic-14" transform="translate(41.015625 0)"/>
     <use xlink:href="#MalgunGothic-11" transform="translate(96.09375 0)"/>
     <use xlink:href="#MalgunGothic-1a" transform="translate(117.96875 0)"/>
     <use xlink:href="#MalgunGothic-1b" transform="translate(173.046875 0)"/>
     <use xlink:href="#MalgunGothic-8" transform="translate(228.125 0)"/>
     <use xlink:href="#MalgunGothic-53" transform="translate(311.765625 0)"/>
    </g>
   </g>
   <g id="text_19">
    <!-- t=-1.38 -->
    <g style="fill: #9ca3af" transform="translate(305.231193 60.484528) scale(0.095 -0.095)">
     <use xlink:href="#MalgunGothic-57"/>
     <use xlink:href="#MalgunGothic-20" transform="translate(34.46875 0)"/>
     <use xlink:href="#MalgunGothic-10" transform="translate(104.53125 0)"/>
     <use xlink:href="#MalgunGothic-14" transform="translate(145.546875 0)"/>
     <use xlink:href="#MalgunGothic-11" transform="translate(200.625 0)"/>
     <use xlink:href="#MalgunGothic-16" transform="translate(222.5 0)"/>
     <use xlink:href="#MalgunGothic-1b" transform="translate(277.578125 0)"/>
    </g>
   </g>
   <g id="text_20">
    <!-- -1.32%p -->
    <g style="fill: #2f7fe0" transform="translate(419.613814 118.869975) scale(0.1 -0.1)">
     <use xlink:href="#MalgunGothic-10"/>
     <use xlink:href="#MalgunGothic-14" transform="translate(41.015625 0)"/>
     <use xlink:href="#MalgunGothic-11" transform="translate(96.09375 0)"/>
     <use xlink:href="#MalgunGothic-16" transform="translate(117.96875 0)"/>
     <use xlink:href="#MalgunGothic-15" transform="translate(173.046875 0)"/>
     <use xlink:href="#MalgunGothic-8" transform="translate(228.125 0)"/>
     <use xlink:href="#MalgunGothic-53" transform="translate(311.765625 0)"/>
    </g>
   </g>
   <g id="text_21">
    <!-- t=-2.02 -->
    <g style="fill: #6b7280" transform="translate(422.404049 60.484528) scale(0.095 -0.095)">
     <use xlink:href="#MalgunGothic-57"/>
     <use xlink:href="#MalgunGothic-20" transform="translate(34.46875 0)"/>
     <use xlink:href="#MalgunGothic-10" transform="translate(104.53125 0)"/>
     <use xlink:href="#MalgunGothic-15" transform="translate(145.546875 0)"/>
     <use xlink:href="#MalgunGothic-11" transform="translate(200.625 0)"/>
     <use xlink:href="#MalgunGothic-13" transform="translate(222.5 0)"/>
     <use xlink:href="#MalgunGothic-15" transform="translate(277.578125 0)"/>
    </g>
   </g>
   <g id="patch_8">
    <path d="M 87.614039 232.632482 
Q 124.459473 163.159521 200.675122 149.624198 
" style="fill: none; stroke: #6b7280; stroke-width: 1.1; stroke-linecap: round"/>
    <path d="M 195.958224 148.22746 
L 200.675122 149.624198 
L 196.727592 152.559673 
" style="fill: none; stroke: #6b7280; stroke-width: 1.1; stroke-linecap: round"/>
   </g>
   <g id="text_22">
    <!-- 크기 절반 -->
    <g style="fill: #6b7280" transform="translate(123.51527 178.867828) scale(0.1 -0.1)">
     <defs>
      <path id="MalgunGothic-a3a" d="M 403 550 
L 403 966 
L 4494 966 
Q 4584 1969 4609 2791 
L 972 2600 
L 872 3059 
L 4616 3188 
L 4616 4475 
L 1178 4475 
L 1178 4891 
L 5075 4891 
L 5075 3138 
Q 5075 2347 4947 966 
L 5997 966 
L 5997 550 
L 403 550 
z
" transform="scale(0.015625)"/>
      <path id="MalgunGothic-31b" d="M 4884 -563 
L 4884 5466 
L 5350 5466 
L 5350 -563 
L 4884 -563 
z
M 3675 4909 
Q 3653 3656 2956 2611 
Q 2259 1566 959 844 
L 603 1222 
Q 1559 1619 2293 2478 
Q 3028 3338 3175 4494 
L 850 4494 
L 850 4909 
L 3675 4909 
z
" transform="scale(0.015625)"/>
      <path id="MalgunGothic-3" transform="scale(0.015625)"/>
      <path id="MalgunGothic-8b8" d="M 4878 2450 
L 4878 3841 
L 3531 3841 
L 3531 4263 
L 4878 4263 
L 4878 5466 
L 5344 5466 
L 5344 2450 
L 4878 2450 
z
M 3688 2631 
Q 3250 2822 2845 3167 
Q 2441 3513 2266 3841 
Q 1853 2978 831 2450 
L 500 2766 
Q 1203 3097 1618 3609 
Q 2034 4122 2034 4684 
L 2034 4844 
L 684 4844 
L 684 5259 
L 3788 5259 
L 3788 4844 
L 2491 4844 
L 2491 4684 
Q 2491 4131 2933 3664 
Q 3375 3197 4000 2988 
L 3688 2631 
z
M 1631 -422 
L 1631 1069 
L 4884 1069 
L 4884 1716 
L 1631 1716 
L 1631 2131 
L 5344 2131 
L 5344 666 
L 2094 666 
L 2094 -6 
L 5509 -6 
L 5509 -422 
L 1631 -422 
z
" transform="scale(0.015625)"/>
      <path id="MalgunGothic-606" d="M 5125 3169 
L 5125 1063 
L 4659 1063 
L 4659 5466 
L 5125 5466 
L 5125 3591 
L 6034 3591 
L 6034 3169 
L 5125 3169 
z
M 756 2119 
L 756 5178 
L 1216 5178 
L 1216 4019 
L 3059 4019 
L 3059 5178 
L 3519 5178 
L 3519 2119 
L 756 2119 
z
M 3059 3603 
L 1216 3603 
L 1216 2534 
L 3059 2534 
L 3059 3603 
z
M 1453 -372 
L 1453 1478 
L 1919 1478 
L 1919 44 
L 5294 44 
L 5294 -372 
L 1453 -372 
z
" transform="scale(0.015625)"/>
     </defs>
     <use xlink:href="#MalgunGothic-a3a"/>
     <use xlink:href="#MalgunGothic-31b" transform="translate(100 0)"/>
     <use xlink:href="#MalgunGothic-3" transform="translate(200 0)"/>
     <use xlink:href="#MalgunGothic-8b8" transform="translate(235.15625 0)"/>
     <use xlink:href="#MalgunGothic-606" transform="translate(335.15625 0)"/>
    </g>
   </g>
   <g id="text_23">
    <!-- 거래량 많은 쪽이 얼마나 더 나빴나 — 방향은 넷 다 같고, 크기는 줄었다 -->
    <g style="fill: #6b7280" transform="translate(59.549453 17.936328) scale(0.125 -0.125)">
     <defs>
      <path id="MalgunGothic-2a0" d="M 4897 -563 
L 4897 2663 
L 3419 2663 
L 3419 3078 
L 4897 3078 
L 4897 5466 
L 5363 5466 
L 5363 -563 
L 4897 -563 
z
M 3547 4928 
Q 3481 2356 831 863 
L 481 1241 
Q 1438 1638 2178 2516 
Q 2919 3394 3047 4513 
L 728 4513 
L 728 4928 
L 3547 4928 
z
" transform="scale(0.015625)"/>
      <path id="MalgunGothic-50e" d="M 5088 -563 
L 5088 2431 
L 4319 2431 
L 4319 -378 
L 3859 -378 
L 3859 5344 
L 4319 5344 
L 4319 2847 
L 5088 2847 
L 5088 5466 
L 5556 5466 
L 5556 -563 
L 5088 -563 
z
M 763 819 
L 763 3169 
L 2606 3169 
L 2606 4500 
L 763 4500 
L 763 4916 
L 3072 4916 
L 3072 2766 
L 1228 2766 
L 1228 1228 
L 1916 1228 
Q 3134 1228 3481 1288 
L 3541 897 
Q 3316 847 2852 833 
Q 2388 819 763 819 
z
" transform="scale(0.015625)"/>
      <path id="MalgunGothic-51b" d="M 5125 2772 
L 5125 1934 
L 4659 1934 
L 4659 5466 
L 5125 5466 
L 5125 4475 
L 6034 4475 
L 6034 4063 
L 5125 4063 
L 5125 3181 
L 6034 3181 
L 6034 2772 
L 5125 2772 
z
M 4078 2350 
Q 3588 2269 3083 2251 
Q 2578 2234 825 2234 
L 825 3981 
L 3053 3981 
L 3053 4794 
L 825 4794 
L 825 5203 
L 3519 5203 
L 3519 3578 
L 1294 3578 
L 1294 2644 
Q 2741 2644 3198 2662 
Q 3656 2681 4000 2747 
L 4078 2350 
z
M 3263 -481 
Q 2306 -481 1803 -184 
Q 1300 113 1300 616 
Q 1300 1122 1808 1419 
Q 2316 1716 3263 1716 
Q 4209 1716 4718 1422 
Q 5228 1128 5228 616 
Q 5228 106 4725 -187 
Q 4222 -481 3263 -481 
z
M 3263 1319 
Q 2547 1319 2172 1134 
Q 1797 950 1797 616 
Q 1797 278 2175 97 
Q 2553 -84 3263 -84 
Q 3981 -84 4359 98 
Q 4738 281 4738 616 
Q 4738 947 4363 1133 
Q 3988 1319 3263 1319 
z
" transform="scale(0.015625)"/>
      <path id="MalgunGothic-584" d="M 5125 3681 
L 5125 2509 
L 4659 2509 
L 4659 5466 
L 5125 5466 
L 5125 4097 
L 6034 4097 
L 6034 3681 
L 5125 3681 
z
M 756 2663 
L 756 5241 
L 3494 5241 
L 3494 2663 
L 756 2663 
z
M 3034 4825 
L 1216 4825 
L 1216 3072 
L 3034 3072 
L 3034 4825 
z
M 2731 1388 
L 2731 1806 
L 3956 1806 
L 3956 2463 
L 4416 2463 
L 4416 1806 
L 5650 1806 
L 5650 1388 
L 2731 1388 
z
M 2853 -281 
Q 2169 -347 1044 -347 
L 1044 1953 
L 1503 1953 
L 1503 56 
Q 2266 56 2828 116 
L 2853 -281 
z
M 4191 -459 
Q 3619 -459 3297 -250 
Q 2975 -41 2975 325 
Q 2975 694 3300 906 
Q 3625 1119 4191 1119 
Q 4759 1119 5084 906 
Q 5409 694 5409 325 
Q 5409 -41 5086 -250 
Q 4763 -459 4191 -459 
z
M 4191 744 
Q 3831 744 3628 631 
Q 3425 519 3425 325 
Q 3425 134 3629 21 
Q 3834 -91 4191 -91 
Q 4550 -91 4754 23 
Q 4959 138 4959 325 
Q 4959 516 4756 630 
Q 4553 744 4191 744 
z
" transform="scale(0.015625)"/>
      <path id="MalgunGothic-875" d="M 3200 2950 
Q 2309 2950 1817 3287 
Q 1325 3625 1325 4159 
Q 1325 4694 1815 5028 
Q 2306 5363 3200 5363 
Q 4094 5363 4587 5028 
Q 5081 4694 5081 4159 
Q 5081 3625 4584 3287 
Q 4088 2950 3200 2950 
z
M 3200 4966 
Q 2541 4966 2177 4747 
Q 1813 4528 1813 4159 
Q 1813 3791 2177 3572 
Q 2541 3353 3200 3353 
Q 3859 3353 4223 3572 
Q 4588 3791 4588 4159 
Q 4588 4528 4223 4747 
Q 3859 4966 3200 4966 
z
M 403 1919 
L 403 2344 
L 5997 2344 
L 5997 1919 
L 403 1919 
z
M 1338 -359 
L 1338 1331 
L 1813 1331 
L 1813 56 
L 5203 56 
L 5203 -359 
L 1338 -359 
z
" transform="scale(0.015625)"/>
      <path id="MalgunGothic-941" d="M 2913 3450 
Q 2366 3747 2125 4225 
Q 1750 3638 984 3316 
L 703 3647 
Q 1191 3822 1545 4162 
Q 1900 4503 1931 4878 
L 928 4878 
L 928 5300 
L 5472 5300 
L 5472 4878 
L 4469 4878 
Q 4494 4478 4826 4143 
Q 5159 3809 5644 3669 
L 5369 3309 
Q 5022 3444 4698 3703 
Q 4375 3963 4269 4184 
Q 4081 3747 3469 3359 
L 3156 3653 
Q 3991 4081 4025 4878 
L 2375 4878 
Q 2406 4122 3188 3775 
L 2913 3450 
z
M 403 2163 
L 403 2578 
L 2963 2578 
L 2963 3303 
L 3438 3303 
L 3438 2578 
L 5997 2578 
L 5997 2163 
L 403 2163 
z
M 4609 -563 
L 4609 1141 
L 1197 1141 
L 1197 1563 
L 5075 1563 
L 5075 -563 
L 4609 -563 
z
" transform="scale(0.015625)"/>
      <path id="MalgunGothic-887" d="M 4947 -563 
L 4947 5466 
L 5416 5466 
L 5416 -563 
L 4947 -563 
z
M 2284 959 
Q 1597 959 1173 1514 
Q 750 2069 750 3016 
Q 750 3975 1169 4522 
Q 1588 5069 2284 5069 
Q 2978 5069 3403 4522 
Q 3828 3975 3828 3016 
Q 3828 2063 3401 1511 
Q 2975 959 2284 959 
z
M 2284 4653 
Q 1803 4653 1503 4204 
Q 1203 3756 1203 3016 
Q 1203 2278 1506 1826 
Q 1809 1375 2284 1375 
Q 2756 1375 3061 1828 
Q 3366 2281 3366 3016 
Q 3366 3759 3067 4206 
Q 2769 4653 2284 4653 
z
" transform="scale(0.015625)"/>
      <path id="MalgunGothic-7f2" d="M 3928 3756 
Q 3847 3181 3423 2842 
Q 3000 2503 2400 2503 
Q 1734 2503 1306 2918 
Q 878 3334 878 3950 
Q 878 4559 1303 4976 
Q 1728 5394 2400 5394 
Q 2997 5394 3417 5055 
Q 3838 4716 3922 4166 
L 4959 4166 
L 4959 5459 
L 5428 5459 
L 5428 2303 
L 4959 2303 
L 4959 3756 
L 3928 3756 
z
M 2400 4991 
Q 1928 4991 1633 4697 
Q 1338 4403 1338 3950 
Q 1338 3488 1630 3194 
Q 1922 2900 2400 2900 
Q 2884 2900 3176 3194 
Q 3469 3488 3469 3950 
Q 3469 4403 3173 4697 
Q 2878 4991 2400 4991 
z
M 1728 -422 
L 1728 1006 
L 4953 1006 
L 4953 1563 
L 1728 1563 
L 1728 1972 
L 5416 1972 
L 5416 603 
L 2188 603 
L 2188 -6 
L 5581 -6 
L 5581 -422 
L 1728 -422 
z
" transform="scale(0.015625)"/>
      <path id="MalgunGothic-581" d="M 5094 2631 
L 5094 -563 
L 4628 -563 
L 4628 5466 
L 5094 5466 
L 5094 3047 
L 6138 3047 
L 6138 2631 
L 5094 2631 
z
M 800 1209 
L 800 4934 
L 3647 4934 
L 3647 1209 
L 800 1209 
z
M 3188 4525 
L 1269 4525 
L 1269 1619 
L 3188 1619 
L 3188 4525 
z
" transform="scale(0.015625)"/>
      <path id="MalgunGothic-39f" d="M 5094 2600 
L 5094 -563 
L 4628 -563 
L 4628 5466 
L 5094 5466 
L 5094 3016 
L 6138 3016 
L 6138 2600 
L 5094 2600 
z
M 4122 1375 
Q 3816 1300 3300 1279 
Q 2784 1259 844 1259 
L 844 4966 
L 1313 4966 
L 1313 1678 
L 2456 1672 
Q 3066 1672 3456 1698 
Q 3847 1725 4056 1766 
L 4122 1375 
z
" transform="scale(0.015625)"/>
      <path id="MalgunGothic-448" d="M 4891 -563 
L 4891 2859 
L 3116 2859 
L 3116 3272 
L 4891 3272 
L 4891 5466 
L 5356 5466 
L 5356 -563 
L 4891 -563 
z
M 4172 1141 
Q 3694 1084 3136 1070 
Q 2578 1056 928 1056 
L 928 4984 
L 3841 4984 
L 3841 4563 
L 1394 4563 
L 1394 1472 
Q 3638 1472 4141 1544 
L 4172 1141 
z
" transform="scale(0.015625)"/>
      <path id="MalgunGothic-68b" d="M 5209 3450 
L 5209 2075 
L 4750 2075 
L 4750 5466 
L 5209 5466 
L 5209 3866 
L 6119 3866 
L 6119 3450 
L 5209 3450 
z
M 2619 2400 
L 2619 5228 
L 3066 5228 
L 3066 4166 
L 3763 4166 
L 3763 5228 
L 4213 5228 
L 4213 2400 
L 2619 2400 
z
M 3763 3775 
L 3066 3775 
L 3066 2797 
L 3763 2797 
L 3763 3775 
z
M 622 2400 
L 622 5228 
L 1069 5228 
L 1069 4166 
L 1766 4166 
L 1766 5228 
L 2216 5228 
L 2216 2400 
L 622 2400 
z
M 1766 3775 
L 1069 3775 
L 1069 2797 
L 1766 2797 
L 1766 3775 
z
M 5550 -353 
Q 5209 -172 4890 168 
Q 4572 509 4447 788 
Q 4319 472 4001 125 
Q 3684 -222 3347 -409 
L 3003 -109 
Q 3569 169 3894 642 
Q 4219 1116 4219 1656 
L 4219 1844 
L 4672 1844 
L 4672 1656 
Q 4672 1113 5014 642 
Q 5356 172 5888 -25 
L 5550 -353 
z
M 3022 78 
Q 2438 438 2247 856 
Q 2113 528 1789 164 
Q 1466 -200 1119 -403 
L 763 -103 
Q 1313 175 1658 648 
Q 2003 1122 2003 1656 
L 2003 1838 
L 2456 1838 
L 2456 1656 
Q 2456 1200 2717 858 
Q 2978 516 3359 384 
L 3022 78 
z
" transform="scale(0.015625)"/>
      <path id="MalgunGothic-118" d="M 6566 1634 
L 0 1634 
L 0 2031 
L 6566 2031 
L 6566 1634 
z
" transform="scale(0.015625)"/>
      <path id="MalgunGothic-60f" d="M 5125 3378 
L 5125 1900 
L 4659 1900 
L 4659 5466 
L 5125 5466 
L 5125 3794 
L 6034 3794 
L 6034 3378 
L 5125 3378 
z
M 756 2344 
L 756 5184 
L 1216 5184 
L 1216 4141 
L 3059 4141 
L 3059 5184 
L 3519 5184 
L 3519 2344 
L 756 2344 
z
M 3059 3731 
L 1216 3731 
L 1216 2753 
L 3059 2753 
L 3059 3731 
z
M 3263 -481 
Q 2319 -481 1809 -176 
Q 1300 128 1300 641 
Q 1300 1144 1808 1445 
Q 2316 1747 3263 1747 
Q 4213 1747 4720 1448 
Q 5228 1150 5228 641 
Q 5228 122 4717 -179 
Q 4206 -481 3263 -481 
z
M 3263 1344 
Q 2547 1344 2172 1159 
Q 1797 975 1797 641 
Q 1797 303 2176 112 
Q 2556 -78 3263 -78 
Q 3978 -78 4358 114 
Q 4738 306 4738 641 
Q 4738 972 4363 1158 
Q 3988 1344 3263 1344 
z
" transform="scale(0.015625)"/>
      <path id="MalgunGothic-b2f" d="M 447 4325 
L 447 4744 
L 1997 4744 
L 1997 5497 
L 2463 5497 
L 2463 4744 
L 4013 4744 
L 4013 4325 
L 447 4325 
z
M 5125 2559 
L 5125 1678 
L 4659 1678 
L 4659 5466 
L 5125 5466 
L 5125 4281 
L 6034 4281 
L 6034 3878 
L 5125 3878 
L 5125 2969 
L 6034 2969 
L 6034 2559 
L 5125 2559 
z
M 2241 1966 
Q 1544 1966 1150 2252 
Q 756 2538 756 2994 
Q 756 3453 1154 3742 
Q 1553 4031 2247 4031 
Q 2941 4031 3339 3742 
Q 3738 3453 3738 2994 
Q 3738 2544 3339 2255 
Q 2941 1966 2241 1966 
z
M 2247 3634 
Q 1763 3634 1489 3456 
Q 1216 3278 1216 2994 
Q 1216 2713 1487 2538 
Q 1759 2363 2247 2363 
Q 2734 2363 3006 2538 
Q 3278 2713 3278 2994 
Q 3278 3278 3004 3456 
Q 2731 3634 2247 3634 
z
M 3263 -519 
Q 2306 -519 1803 -244 
Q 1300 31 1300 531 
Q 1300 1034 1803 1320 
Q 2306 1606 3263 1606 
Q 4222 1606 4725 1322 
Q 5228 1038 5228 531 
Q 5228 28 4723 -245 
Q 4219 -519 3263 -519 
z
M 3263 1209 
Q 1797 1209 1797 531 
Q 1797 -147 3263 -147 
Q 4738 -147 4738 531 
Q 4738 1209 3263 1209 
z
" transform="scale(0.015625)"/>
      <path id="MalgunGothic-3d2" d="M 5006 1428 
L 5006 5466 
L 5466 5466 
L 5466 1428 
L 5006 1428 
z
M 3916 1869 
L 3916 3700 
L 2528 3700 
L 2528 4109 
L 3916 4109 
L 3916 5350 
L 4372 5350 
L 4372 1869 
L 3916 1869 
z
M 3444 2438 
Q 2572 2344 966 2344 
L 966 5075 
L 1428 5075 
L 1428 2747 
Q 2747 2747 3406 2841 
L 3444 2438 
z
M 5619 -428 
Q 4994 -288 4391 137 
Q 3788 563 3506 1050 
Q 3281 588 2678 153 
Q 2075 -281 1428 -428 
L 1131 -25 
Q 1953 91 2611 656 
Q 3269 1222 3278 1772 
L 3278 1913 
L 3744 1913 
L 3744 1778 
Q 3744 1241 4395 669 
Q 5047 97 5888 -25 
L 5619 -428 
z
" transform="scale(0.015625)"/>
      <path id="MalgunGothic-42c" d="M 5094 2669 
L 5094 -563 
L 4628 -563 
L 4628 5466 
L 5094 5466 
L 5094 3091 
L 6156 3091 
L 6156 2669 
L 5094 2669 
z
M 4050 1234 
Q 3538 1172 3003 1159 
Q 2469 1147 838 1147 
L 838 4934 
L 3653 4934 
L 3653 4519 
L 1306 4519 
L 1306 1563 
Q 3566 1563 4013 1638 
L 4050 1234 
z
" transform="scale(0.015625)"/>
      <path id="MalgunGothic-28b" d="M 5119 3525 
L 5119 2272 
L 4653 2272 
L 4653 5466 
L 5119 5466 
L 5119 3944 
L 6028 3944 
L 6028 3525 
L 5119 3525 
z
M 3488 5209 
Q 3488 4306 2794 3461 
Q 2100 2616 788 2081 
L 459 2450 
Q 1506 2784 2178 3450 
Q 2850 4116 2963 4794 
L 831 4794 
L 831 5209 
L 3488 5209 
z
M 1466 -422 
L 1466 1941 
L 5153 1941 
L 5153 1528 
L 1925 1528 
L 1925 972 
L 5044 972 
L 5044 563 
L 1925 563 
L 1925 -6 
L 5269 -6 
L 5269 -422 
L 1466 -422 
z
" transform="scale(0.015625)"/>
      <path id="MalgunGothic-2c8" d="M 4959 1656 
L 4506 1697 
Q 4616 2694 4616 3534 
L 4616 4475 
L 1216 4475 
L 1216 4897 
L 5081 4897 
L 5081 3525 
Q 5081 2613 4959 1656 
z
M 403 513 
L 403 934 
L 2625 934 
L 2625 2900 
L 3091 2900 
L 3091 934 
L 5997 934 
L 5997 513 
L 403 513 
z
" transform="scale(0.015625)"/>
      <path id="MalgunGothic-f" d="M 988 725 
L 472 -850 
L 125 -850 
L 503 725 
L 988 725 
z
" transform="scale(0.015625)"/>
      <path id="MalgunGothic-415" d="M 1409 3225 
L 1409 5247 
L 1875 5247 
L 1875 3641 
L 5172 3641 
L 5172 3225 
L 1409 3225 
z
M 403 1972 
L 403 2394 
L 5997 2394 
L 5997 1972 
L 403 1972 
z
M 1381 -331 
L 1381 1459 
L 1850 1459 
L 1850 91 
L 5184 91 
L 5184 -331 
L 1381 -331 
z
" transform="scale(0.015625)"/>
      <path id="MalgunGothic-8f2" d="M 5459 3372 
Q 4744 3453 4111 3775 
Q 3478 4097 3206 4494 
Q 2963 4138 2328 3809 
Q 1694 3481 972 3378 
L 697 3750 
Q 1538 3828 2163 4167 
Q 2788 4506 2938 4928 
L 1025 4928 
L 1025 5344 
L 5375 5344 
L 5375 4928 
L 3469 4928 
Q 3625 4503 4272 4150 
Q 4919 3797 5703 3744 
L 5459 3372 
z
M 1319 -416 
L 1319 947 
L 4616 947 
L 4616 1478 
L 1319 1478 
L 1319 1888 
L 2963 1888 
L 2963 2522 
L 403 2522 
L 403 2938 
L 5997 2938 
L 5997 2522 
L 3438 2522 
L 3438 1888 
L 5075 1888 
L 5075 544 
L 1778 544 
L 1778 0 
L 5234 0 
L 5234 -416 
L 1319 -416 
z
" transform="scale(0.015625)"/>
      <path id="MalgunGothic-7f9" d="M 3891 3559 
Q 3813 2969 3384 2626 
Q 2956 2284 2344 2284 
Q 1659 2284 1223 2701 
Q 788 3119 788 3788 
Q 788 4466 1225 4880 
Q 1663 5294 2344 5294 
Q 2969 5294 3397 4945 
Q 3825 4597 3897 3981 
L 4947 3981 
L 4947 5466 
L 5416 5466 
L 5416 2081 
L 4947 2081 
L 4947 3559 
L 3891 3559 
z
M 2344 4884 
Q 1853 4884 1553 4590 
Q 1253 4297 1253 3788 
Q 1253 3278 1550 2986 
Q 1847 2694 2344 2694 
Q 2844 2694 3141 2986 
Q 3438 3278 3438 3788 
Q 3438 4297 3138 4590 
Q 2838 4884 2344 4884 
z
M 5650 -441 
Q 5325 -272 5003 65 
Q 4681 403 4556 691 
Q 4431 378 4111 25 
Q 3791 -328 3456 -519 
L 3109 -213 
Q 3644 47 3981 526 
Q 4319 1006 4319 1563 
L 4319 1806 
L 4781 1806 
L 4781 1563 
Q 4781 1016 5123 548 
Q 5466 81 5997 -122 
L 5650 -441 
z
M 3128 -25 
Q 2563 325 2350 763 
Q 2009 -19 1222 -494 
L 863 -197 
Q 1422 81 1767 556 
Q 2113 1031 2113 1563 
L 2113 1800 
L 2566 1800 
L 2566 1563 
Q 2566 1106 2830 757 
Q 3094 409 3469 281 
L 3128 -25 
z
" transform="scale(0.015625)"/>
     </defs>
     <use xlink:href="#MalgunGothic-2a0"/>
     <use xlink:href="#MalgunGothic-50e" transform="translate(100 0)"/>
     <use xlink:href="#MalgunGothic-51b" transform="translate(200 0)"/>
     <use xlink:href="#MalgunGothic-3" transform="translate(300 0)"/>
     <use xlink:href="#MalgunGothic-584" transform="translate(335.15625 0)"/>
     <use xlink:href="#MalgunGothic-875" transform="translate(435.15625 0)"/>
     <use xlink:href="#MalgunGothic-3" transform="translate(535.15625 0)"/>
     <use xlink:href="#MalgunGothic-941" transform="translate(570.3125 0)"/>
     <use xlink:href="#MalgunGothic-887" transform="translate(670.3125 0)"/>
     <use xlink:href="#MalgunGothic-3" transform="translate(770.3125 0)"/>
     <use xlink:href="#MalgunGothic-7f2" transform="translate(805.46875 0)"/>
     <use xlink:href="#MalgunGothic-581" transform="translate(905.46875 0)"/>
     <use xlink:href="#MalgunGothic-39f" transform="translate(1005.46875 0)"/>
     <use xlink:href="#MalgunGothic-3" transform="translate(1105.46875 0)"/>
     <use xlink:href="#MalgunGothic-448" transform="translate(1140.625 0)"/>
     <use xlink:href="#MalgunGothic-3" transform="translate(1240.625 0)"/>
     <use xlink:href="#MalgunGothic-39f" transform="translate(1275.78125 0)"/>
     <use xlink:href="#MalgunGothic-68b" transform="translate(1375.78125 0)"/>
     <use xlink:href="#MalgunGothic-39f" transform="translate(1475.78125 0)"/>
     <use xlink:href="#MalgunGothic-3" transform="translate(1575.78125 0)"/>
     <use xlink:href="#MalgunGothic-118" transform="translate(1610.9375 0)"/>
     <use xlink:href="#MalgunGothic-3" transform="translate(1713.53125 0)"/>
     <use xlink:href="#MalgunGothic-60f" transform="translate(1748.6875 0)"/>
     <use xlink:href="#MalgunGothic-b2f" transform="translate(1848.6875 0)"/>
     <use xlink:href="#MalgunGothic-875" transform="translate(1948.6875 0)"/>
     <use xlink:href="#MalgunGothic-3" transform="translate(2048.6875 0)"/>
     <use xlink:href="#MalgunGothic-3d2" transform="translate(2083.84375 0)"/>
     <use xlink:href="#MalgunGothic-3" transform="translate(2183.84375 0)"/>
     <use xlink:href="#MalgunGothic-42c" transform="translate(2219 0)"/>
     <use xlink:href="#MalgunGothic-3" transform="translate(2319 0)"/>
     <use xlink:href="#MalgunGothic-28b" transform="translate(2354.15625 0)"/>
     <use xlink:href="#MalgunGothic-2c8" transform="translate(2454.15625 0)"/>
     <use xlink:href="#MalgunGothic-f" transform="translate(2554.15625 0)"/>
     <use xlink:href="#MalgunGothic-3" transform="translate(2576.03125 0)"/>
     <use xlink:href="#MalgunGothic-a3a" transform="translate(2611.1875 0)"/>
     <use xlink:href="#MalgunGothic-31b" transform="translate(2711.1875 0)"/>
     <use xlink:href="#MalgunGothic-415" transform="translate(2811.1875 0)"/>
     <use xlink:href="#MalgunGothic-3" transform="translate(2911.1875 0)"/>
     <use xlink:href="#MalgunGothic-8f2" transform="translate(2946.34375 0)"/>
     <use xlink:href="#MalgunGothic-7f9" transform="translate(3046.34375 0)"/>
     <use xlink:href="#MalgunGothic-42c" transform="translate(3146.34375 0)"/>
    </g>
   </g>
  </g>
 </g>
 <defs>
  <clipPath id="p4a5c9f5c46">
   <rect x="33.665937" y="33.936328" width="457.56" height="238.392"/>
  </clipPath>
 </defs>
</svg>
